<svg width="1215" height="702" viewBox="0 0 1215 702" fill="none" xmlns="http://www.w3.org/2000/svg">
<path d="M139.423 166.274C162.986 199.64 203.706 221.462 242.076 212.508C269.513 206.105 291.961 185.638 311.805 164.532C323.917 151.649 336.354 135.983 335.128 117.831C334.534 109.028 330.711 100.874 326.755 93.1114C319.895 79.6452 312.077 66.1493 300.328 57.2707C286.934 47.1483 269.863 44.1566 253.422 43.9008C223.037 43.4281 191.648 51.9917 168.52 72.913C145.393 93.8343 132.148 128.333 140.003 159.49" fill="#EBF2EE"/>
<path d="M1117.77 631.221C1220.74 509.59 1246.5 289.943 1172.2 146.504C1143.24 90.598 1094.13 47.6524 1038.33 23.9508C982.526 0.249074 920.432 -4.78153 861.055 5.12954C838.113 8.95903 815.433 14.985 793.892 24.2047C736.915 48.5904 691.205 93.9307 652.405 143.382C614.583 191.588 590.807 247.683 543.75 285.993C521.834 303.835 497.341 319.863 469.957 323.691C426.173 329.811 384.863 304.245 344.457 285.327C287.024 258.436 224.538 243.768 161.778 242.445C125.083 241.672 86.036 246.326 57.0773 270.26C32.3537 290.693 18.349 322.584 10.0864 354.666C-1.68295 400.353 -3.40134 449.727 10.4433 494.754C24.288 539.781 54.691 579.92 95.5166 599.043" fill="#EBF2EE"/>
<path d="M592.663 168.871C601.423 168.871 608.524 161.333 608.524 152.035C608.524 142.736 601.423 135.199 592.663 135.199C583.904 135.199 576.802 142.736 576.802 152.035C576.802 161.333 583.904 168.871 592.663 168.871Z" fill="#EBF2EE"/>
<path d="M41.4876 246.734C50.2474 246.734 57.3487 239.196 57.3487 229.898C57.3487 220.6 50.2474 213.062 41.4876 213.062C32.7277 213.062 25.6265 220.6 25.6265 229.898C25.6265 239.196 32.7277 246.734 41.4876 246.734Z" fill="#EBF2EE"/>
<path d="M118.813 93.1114C118.813 86.1383 117.038 80.4849 114.848 80.4849C112.659 80.4849 110.883 86.1383 110.883 93.1114C110.883 100.085 112.659 105.738 114.848 105.738C117.038 105.738 118.813 100.085 118.813 93.1114Z" fill="#EBF2EE"/>
<path d="M1195.39 617.114C1204.15 617.114 1211.25 609.576 1211.25 600.277C1211.25 590.979 1204.15 583.441 1195.39 583.441C1186.63 583.441 1179.53 590.979 1179.53 600.277C1179.53 609.576 1186.63 617.114 1195.39 617.114Z" fill="#EBF2EE"/>
<path d="M1101.84 624.464H910.085C899.587 624.464 891.078 615.889 891.078 605.312C891.078 594.736 899.589 586.163 910.085 586.163H1101.84C1112.33 586.163 1120.84 594.738 1120.84 605.312C1120.85 615.889 1112.34 624.464 1101.84 624.464Z" fill="#549BE4"/>
<path d="M1120.64 587.987H928.884C918.386 587.987 909.876 579.412 909.876 568.836C909.876 558.259 918.386 549.685 928.884 549.685H1120.64C1131.13 549.685 1139.64 558.259 1139.64 568.836C1139.64 579.412 1131.14 587.987 1120.64 587.987Z" fill="#7FC2B1"/>
<path d="M1101.84 553.334H910.085C899.587 553.334 891.078 544.76 891.078 534.185C891.078 523.608 899.589 515.036 910.085 515.036H1101.84C1112.33 515.036 1120.84 523.61 1120.84 534.185C1120.85 544.76 1112.34 553.334 1101.84 553.334Z" fill="#FF5168"/>
<path d="M208.82 533.818C208.82 537.121 232.232 539.798 261.11 539.798C289.99 539.798 313.399 537.119 313.399 533.818C313.399 530.515 289.988 527.836 261.11 527.836C232.232 527.836 208.82 530.515 208.82 533.818Z" fill="#78B5FD" stroke="#78B5FD" stroke-width="1.82967" stroke-miterlimit="10"/>
<path d="M218.152 368.079C208.412 332.9 204.059 296.308 205.312 259.806C205.663 249.546 206.469 239.309 207.691 229.12C207.969 226.805 204.363 226.825 204.087 229.12C199.719 265.548 200.933 302.575 207.639 338.642C209.542 348.876 211.9 359.017 214.679 369.044C215.299 371.293 218.778 370.338 218.152 368.079Z" fill="#7FC2B1"/>
<path d="M162.653 360.668C139.045 366.116 112.522 352.605 102.883 330.219C113.74 333.689 125.347 334.746 136.646 333.293C101.926 322.926 80.4539 287.835 68.6956 253.331C57.7156 221.11 52.3065 186.971 52.7812 152.906C62.1716 161.586 71.5621 170.267 80.9507 178.949C71.9282 169.522 62.7309 159.84 57.3991 147.898C52.0673 135.955 51.2725 121.101 58.7293 110.374C87.276 127.356 114.071 147.323 138.546 169.852C140.896 172.013 143.315 174.341 144.275 177.396C145.361 180.851 144.39 184.58 143.416 188.069C139.648 201.574 135.88 215.081 132.112 228.586C138.026 216.61 145.258 205.294 153.631 194.914C186.991 244.643 201.238 307.04 192.804 366.457" fill="#7FC2B1"/>
<path d="M218.12 357.856C217.469 333.758 222.415 309.524 232.453 287.641C240.167 270.819 254.766 253.451 273.023 255.698C283.616 257.001 292.199 264.712 299.724 272.337C323.667 296.603 344.63 323.848 361.985 353.259C370.207 367.192 377.786 382.169 378.777 398.349C351.261 375.17 345.817 330.794 314.763 312.714C311.817 310.999 307.779 309.689 305.287 312.023C298.462 318.41 318.659 329.366 312.203 336.134C304.073 327.644 295.945 319.155 287.815 310.668C285.975 308.745 283.993 306.74 281.421 306.095C277.101 305.01 272.925 308.084 269.604 311.072C253.09 325.924 239.039 343.55 228.21 363" fill="#7FC2B1"/>
<path d="M202.229 258.438C202.996 223.779 212.095 189.336 228.532 158.88C225.62 176.713 226.821 195.216 232.017 212.513C231.298 189.425 231.152 164.376 244.802 145.818C250.586 137.953 258.441 131.918 266.324 126.194C292.584 107.132 320.432 90.2904 349.479 75.9048C343.488 98.9262 337.498 121.95 331.505 144.971C331.055 146.7 330.536 148.545 329.178 149.696C327.614 151.023 325.379 151.071 323.335 151.054C313.407 150.975 303.479 150.893 293.554 150.813C300.173 156.37 308.04 160.409 316.393 162.541C318.684 163.125 321.385 163.885 322.165 166.131C322.733 167.77 322.006 169.551 321.27 171.119C299.395 217.652 255.243 252.91 205.283 263.746" fill="#7FC2B1"/>
<path d="M106.234 156.533C108.344 171.31 108.823 186.281 107.759 201.167C107.592 203.499 111.198 203.488 111.364 201.167C112.453 185.937 111.868 170.68 109.71 155.568C109.38 153.264 105.907 154.244 106.234 156.533Z" fill="#008768"/>
<path d="M121.171 166.889C119.642 180.471 118.111 194.054 116.582 207.635C116.321 209.952 119.927 209.933 120.187 207.635C121.715 194.054 123.244 180.471 124.775 166.889C125.036 164.573 121.43 164.591 121.171 166.889Z" fill="#008768"/>
<path d="M183.904 344.514C166.302 299.107 143.635 255.735 116.32 215.492C108.655 204.2 100.619 193.167 92.262 182.385C90.8362 180.544 88.3027 183.13 89.7139 184.952C119.125 222.902 144.237 264.226 164.449 307.854C170.178 320.219 175.501 332.768 180.428 345.478C181.263 347.631 184.75 346.694 183.904 344.514Z" fill="#008768"/>
<path d="M254.52 188.326C255.944 173.301 257.366 158.276 258.79 143.251C259.011 140.927 255.405 140.941 255.186 143.251C253.762 158.276 252.34 173.301 250.916 188.326C250.695 190.651 254.301 190.636 254.52 188.326Z" fill="#008768"/>
<path d="M269.98 132.037C264.315 146.66 260.655 161.942 258.974 177.546C258.724 179.864 262.33 179.848 262.578 177.546C264.223 162.28 267.915 147.305 273.455 133.002C274.3 130.824 270.815 129.881 269.98 132.037Z" fill="#008768"/>
<path d="M212.061 251.761C224.274 224.997 243.167 201.418 266.643 183.84C273.25 178.893 280.201 174.435 287.431 170.47C289.468 169.353 287.652 166.216 285.612 167.336C259.591 181.605 237.305 202.485 221.179 227.516C216.565 234.676 212.488 242.172 208.95 249.928C207.988 252.037 211.091 253.883 212.061 251.761Z" fill="#008768"/>
<path d="M268.248 279.737C276.06 287.608 283.872 295.478 291.684 303.348C293.327 305.003 295.875 302.436 294.232 300.781C286.42 292.911 278.608 285.04 270.796 277.17C269.154 275.517 266.605 278.082 268.248 279.737Z" fill="#008768"/>
<path d="M281.063 278.384C301.575 292.035 320.286 308.271 336.764 326.651C338.322 328.39 340.865 325.815 339.312 324.084C322.632 305.478 303.645 289.066 282.881 275.248C280.942 273.958 279.133 277.101 281.063 278.384Z" fill="#008768"/>
<path d="M287.391 278.999C276.207 271.52 262.333 278.306 254.941 287.846C250.645 293.389 247.637 299.789 244.803 306.176C241.72 313.129 238.951 320.225 236.535 327.439C233.713 335.867 231.38 344.453 229.507 353.144C229.016 355.422 232.489 356.395 232.982 354.11C236.802 336.403 242.546 319.075 250.337 302.732C253.702 295.674 257.739 288.317 264.228 283.694C270.402 279.296 279.005 277.741 285.574 282.135C287.511 283.431 289.316 280.287 287.391 278.999Z" fill="#008768"/>
<path d="M250.857 542.489H162.205C135.379 542.489 113.632 520.58 113.632 493.553V362.234H299.43V493.553C299.43 520.58 277.684 542.489 250.857 542.489Z" fill="#1B4170"/>
<path opacity="0.35" d="M250.857 542.489H162.205C135.379 542.489 113.632 520.58 113.632 493.553V362.234" fill="#549BE4"/>
<path d="M128.007 377.435C166.601 413.628 204.406 450.676 241.372 488.557C251.814 499.258 262.187 510.025 272.498 520.856C274.106 522.546 276.652 519.975 275.046 518.288C238.551 479.947 201.219 442.416 163.074 405.743C152.298 395.383 141.458 385.092 130.555 374.868C128.861 373.278 126.305 375.839 128.007 377.435Z" fill="white"/>
<path d="M200.983 374.084C222.575 396.75 244.167 419.417 265.76 442.083C271.899 448.527 278.037 454.97 284.176 461.415C285.784 463.104 288.33 460.535 286.724 458.848C265.132 436.183 243.54 413.515 221.948 390.85C215.808 384.405 209.671 377.962 203.531 371.517C201.921 369.828 199.375 372.397 200.983 374.084Z" fill="white"/>
<path d="M274.996 377.111C243.999 413.977 213.001 450.841 182.004 487.706C177.76 492.755 173.515 497.803 169.269 502.852C167.098 505.434 164.925 508.018 162.754 510.6C161.668 511.892 160.583 513.182 159.496 514.474C159.1 514.943 158.71 515.415 158.311 515.883C157.972 516.301 157.619 516.707 157.255 517.104C156.414 517.469 156.258 518.07 156.787 518.908C156.324 518.969 155.862 519.03 155.398 519.091C155.303 519.021 155.207 518.952 155.111 518.882C156.85 520.416 159.407 517.858 157.659 516.314C154.51 513.534 151.432 519.393 154.719 521.126C156.822 522.235 158.901 520.648 160.267 519.154C162.64 516.559 164.815 513.745 167.078 511.054C176.061 500.37 185.043 489.686 194.027 479.002C211.796 457.869 229.565 436.737 247.334 415.604C257.404 403.628 267.473 391.654 277.542 379.678C279.034 377.906 276.497 375.326 274.996 377.111Z" fill="white"/>
<path d="M234.124 599.662H414.517V384.942H234.124L234.124 599.662Z" fill="#FAA53C"/>
<path d="M53.7295 599.662H234.122L234.122 384.942H53.7295L53.7295 599.662Z" fill="#FACB61"/>
<path opacity="0.63" d="M344.307 596.771H369.393V385.396H344.307V596.771Z" fill="#FFE7B3"/>
<path opacity="0.63" d="M54.6844 458.916L417.284 458.916V426.751L54.6844 426.751V458.916Z" fill="#FFE7B3"/>
<path d="M201.397 539.33L63.8081 545.458L71.4084 501.805L200.637 504.101L201.397 539.33Z" fill="#FAA53C"/>
<path opacity="0.95" d="M205.199 498.741H69.8892V538.565H205.199V498.741Z" fill="#FDFDFD" stroke="#FDFDFD" stroke-width="0.484154" stroke-miterlimit="10"/>
<path d="M106.923 511.311C106.923 512.273 106.838 513.222 106.667 514.158C106.496 515.085 106.213 515.953 105.817 516.762C105.43 517.572 104.917 518.31 104.278 518.976C103.64 519.632 102.857 520.172 101.93 520.595C101.696 520.703 101.44 520.802 101.161 520.892C100.891 520.982 100.608 521.058 100.311 521.121C100.023 521.184 99.7353 521.234 99.4474 521.27C99.1596 521.306 98.8897 521.324 98.6378 521.324C98.5388 521.324 98.4264 521.319 98.3004 521.31C98.1835 521.31 98.071 521.292 97.9631 521.256C97.8551 521.229 97.7651 521.18 97.6932 521.108C97.6212 521.036 97.5852 520.937 97.5852 520.811C97.5852 520.703 97.6077 520.59 97.6527 520.473C97.6977 520.356 97.7562 520.244 97.8281 520.136C97.9091 520.028 97.9946 519.934 98.0845 519.853C98.1745 519.763 98.2689 519.695 98.3679 519.65C98.3229 519.578 98.2779 519.376 98.2329 519.043C98.197 518.71 98.161 518.287 98.125 517.775C98.098 517.262 98.071 516.69 98.044 516.061C98.017 515.422 97.9901 514.765 97.9631 514.091C97.9451 513.416 97.9271 512.746 97.9091 512.08C97.9001 511.405 97.8911 510.784 97.8821 510.218C97.8731 509.651 97.8641 509.161 97.8551 508.747C97.8551 508.324 97.8551 508.018 97.8551 507.829C97.8551 506.984 97.8686 506.151 97.8956 505.333C97.9226 504.514 97.9361 503.682 97.9361 502.836C97.8371 502.836 97.7427 502.809 97.6527 502.755C97.5717 502.701 97.5312 502.62 97.5312 502.512C97.5312 502.369 97.5672 502.238 97.6392 502.121C97.7112 501.995 97.8011 501.887 97.9091 501.797C98.026 501.707 98.152 501.64 98.2869 501.595C98.4309 501.541 98.5658 501.514 98.6918 501.514C98.8177 501.514 98.9391 501.527 99.0561 501.554C99.1731 501.572 99.2945 501.595 99.4204 501.622C100.617 501.91 101.683 502.346 102.619 502.931C103.554 503.516 104.337 504.226 104.967 505.063C105.605 505.9 106.091 506.844 106.424 507.897C106.757 508.949 106.923 510.087 106.923 511.311ZM104.926 511.068C104.926 510.168 104.818 509.323 104.602 508.531C104.386 507.73 104.062 507.002 103.631 506.345C103.208 505.679 102.673 505.094 102.025 504.591C101.386 504.078 100.644 503.655 99.7983 503.322V503.376C99.7983 505.697 99.8343 508 99.9062 510.285C99.9872 512.561 100.104 514.855 100.257 517.167C100.284 517.518 100.307 517.869 100.325 518.22C100.352 518.562 100.392 518.904 100.446 519.245C101.292 518.967 102.002 518.535 102.578 517.95C103.154 517.365 103.613 516.699 103.955 515.953C104.305 515.197 104.553 514.396 104.697 513.551C104.85 512.696 104.926 511.869 104.926 511.068ZM117.098 510.609C117.098 510.987 117.089 511.428 117.071 511.931C117.062 512.426 117.03 512.957 116.976 513.524C116.932 514.091 116.86 514.671 116.761 515.265C116.671 515.858 116.549 516.439 116.396 517.005C116.243 517.572 116.054 518.107 115.829 518.611C115.605 519.115 115.335 519.556 115.02 519.934C114.705 520.311 114.341 520.613 113.927 520.838C113.513 521.054 113.041 521.162 112.51 521.162C111.979 521.162 111.498 521.04 111.066 520.797C110.634 520.545 110.27 520.217 109.973 519.812C109.73 519.488 109.514 519.092 109.325 518.625C109.145 518.148 108.983 517.631 108.839 517.073C108.705 516.515 108.588 515.935 108.489 515.332C108.39 514.729 108.309 514.136 108.246 513.551C108.192 512.966 108.151 512.413 108.124 511.891C108.097 511.36 108.084 510.897 108.084 510.501C108.084 509.835 108.111 509.138 108.165 508.409C108.228 507.681 108.34 506.961 108.502 506.25C108.664 505.531 108.884 504.838 109.163 504.172C109.442 503.507 109.802 502.908 110.243 502.378C110.288 502.324 110.342 502.261 110.405 502.189C110.477 502.117 110.553 502.049 110.634 501.986C110.715 501.914 110.796 501.856 110.877 501.811C110.967 501.757 111.053 501.73 111.133 501.73C111.214 501.73 111.291 501.752 111.363 501.797C111.444 501.842 111.511 501.901 111.565 501.973C111.754 501.865 111.952 501.788 112.159 501.743C112.375 501.698 112.591 501.676 112.807 501.676C113.463 501.676 114.026 501.833 114.494 502.148C114.97 502.454 115.366 502.859 115.681 503.363C115.996 503.866 116.248 504.438 116.437 505.076C116.626 505.715 116.77 506.367 116.869 507.033C116.968 507.699 117.03 508.342 117.057 508.963C117.084 509.583 117.098 510.132 117.098 510.609ZM114.993 511.203C114.993 510.969 114.984 510.614 114.966 510.137C114.957 509.651 114.925 509.12 114.871 508.544C114.817 507.96 114.741 507.361 114.642 506.75C114.552 506.138 114.426 505.585 114.264 505.09C114.102 504.586 113.9 504.177 113.657 503.862C113.423 503.538 113.14 503.376 112.807 503.376C112.672 503.376 112.55 503.439 112.442 503.565C112.334 503.691 112.231 503.853 112.132 504.051C112.033 504.249 111.943 504.465 111.862 504.699C111.781 504.932 111.7 505.157 111.619 505.373C111.538 505.589 111.462 505.783 111.39 505.954C111.318 506.124 111.241 506.246 111.16 506.318C111.133 506.345 111.088 506.363 111.026 506.372C110.972 506.372 110.918 506.372 110.864 506.372C110.711 506.372 110.567 506.345 110.432 506.291C110.279 506.903 110.171 507.514 110.108 508.126C110.054 508.729 110.027 509.341 110.027 509.961C110.027 510.15 110.036 510.434 110.054 510.811C110.072 511.189 110.099 511.621 110.135 512.107C110.171 512.593 110.22 513.114 110.283 513.672C110.346 514.23 110.423 514.788 110.513 515.346C110.603 515.894 110.706 516.425 110.823 516.938C110.949 517.442 111.093 517.891 111.255 518.287C111.417 518.674 111.597 518.984 111.795 519.218C111.993 519.452 112.213 519.569 112.456 519.569C112.591 519.569 112.712 519.533 112.82 519.461C112.928 519.38 113.032 519.299 113.131 519.218C113.401 518.976 113.634 518.656 113.832 518.26C114.03 517.864 114.197 517.428 114.332 516.951C114.467 516.475 114.579 515.975 114.669 515.453C114.759 514.923 114.826 514.401 114.871 513.888C114.916 513.375 114.948 512.89 114.966 512.431C114.984 511.963 114.993 511.554 114.993 511.203ZM127.475 519.866C127.475 520.028 127.457 520.19 127.421 520.352C127.394 520.505 127.34 520.644 127.259 520.77C127.187 520.887 127.088 520.982 126.962 521.054C126.836 521.126 126.674 521.162 126.476 521.162C126.234 521.162 126.036 521.108 125.883 521C125.739 520.901 125.604 520.757 125.478 520.568C125.307 520.325 125.154 520.046 125.019 519.731C124.884 519.407 124.763 519.079 124.655 518.746C124.547 518.404 124.443 518.067 124.344 517.734C124.254 517.392 124.164 517.077 124.074 516.789C123.589 515.278 123.134 513.771 122.712 512.269C122.298 510.766 121.852 509.26 121.376 507.748C121.331 509.7 121.295 511.644 121.268 513.578C121.25 515.512 121.241 517.455 121.241 519.407C121.241 519.506 121.236 519.619 121.227 519.745C121.218 519.871 121.196 519.992 121.16 520.109C121.124 520.217 121.065 520.311 120.984 520.392C120.912 520.473 120.809 520.514 120.674 520.514C120.215 520.514 119.864 520.392 119.621 520.15C119.387 519.898 119.271 519.542 119.271 519.083C119.271 516.556 119.275 514.05 119.284 511.567C119.293 509.084 119.298 506.588 119.298 504.078V502.162C119.298 501.955 119.333 501.784 119.405 501.649C119.486 501.505 119.657 501.433 119.918 501.433C120.098 501.433 120.283 501.46 120.472 501.514C120.66 501.559 120.827 501.631 120.971 501.73C121.124 501.829 121.245 501.959 121.335 502.121C121.434 502.274 121.484 502.459 121.484 502.674C121.861 503.394 122.176 504.136 122.428 504.901C122.689 505.666 122.941 506.435 123.184 507.208C123.535 508.333 123.881 509.458 124.223 510.582C124.565 511.707 124.911 512.84 125.262 513.983C125.208 512.282 125.15 510.587 125.087 508.895C125.033 507.195 124.92 505.499 124.749 503.808C124.704 503.439 124.65 503.079 124.587 502.728C124.533 502.378 124.506 502.018 124.506 501.649C124.506 501.46 124.569 501.334 124.695 501.271C124.821 501.199 124.965 501.163 125.127 501.163C125.406 501.163 125.644 501.186 125.842 501.231C126.04 501.276 126.207 501.352 126.342 501.46C126.476 501.568 126.58 501.716 126.652 501.905C126.724 502.085 126.782 502.315 126.827 502.593C126.881 503.079 126.922 503.57 126.949 504.064C126.985 504.55 127.016 505.031 127.043 505.508C127.124 506.714 127.183 507.91 127.219 509.098C127.255 510.285 127.286 511.482 127.313 512.687C127.34 513.884 127.372 515.08 127.408 516.277C127.453 517.464 127.475 518.661 127.475 519.866ZM139.242 513.551C139.242 513.74 139.175 513.938 139.04 514.145C138.905 514.351 138.756 514.504 138.594 514.603C138.549 514.63 138.473 514.657 138.365 514.684C138.257 514.711 138.14 514.738 138.014 514.765C137.897 514.783 137.78 514.806 137.663 514.833C137.555 514.851 137.47 514.864 137.407 514.873L137.731 516.87C137.83 517.491 137.902 518.116 137.947 518.746C138.001 519.367 138.118 519.983 138.297 520.595C138.315 520.649 138.333 520.698 138.351 520.743C138.369 520.788 138.378 520.847 138.378 520.919C138.378 521.036 138.342 521.126 138.27 521.189C138.207 521.252 138.127 521.297 138.028 521.324C137.938 521.359 137.839 521.382 137.731 521.391C137.623 521.4 137.524 521.404 137.434 521.404H137.245C136.966 521.404 136.75 521.382 136.597 521.337C136.453 521.292 136.341 521.216 136.26 521.108C136.179 521 136.125 520.865 136.098 520.703C136.071 520.532 136.039 520.325 136.003 520.082C135.788 518.436 135.545 516.789 135.275 515.143C134.717 515.215 134.155 515.283 133.588 515.346C133.03 515.409 132.468 515.467 131.901 515.521L131.469 518.166C131.451 518.328 131.424 518.548 131.388 518.827C131.361 519.106 131.325 519.394 131.28 519.691C131.244 519.979 131.199 520.248 131.145 520.5C131.101 520.752 131.047 520.937 130.984 521.054C130.93 521.162 130.88 521.238 130.835 521.283C130.79 521.328 130.705 521.35 130.579 521.35C130.417 521.35 130.255 521.319 130.093 521.256C129.94 521.202 129.801 521.121 129.675 521.013C129.558 520.914 129.463 520.793 129.391 520.649C129.319 520.505 129.283 520.343 129.283 520.163C129.283 519.983 129.301 519.803 129.337 519.623C129.382 519.443 129.418 519.263 129.445 519.083C129.544 518.49 129.634 517.9 129.715 517.316C129.796 516.722 129.886 516.133 129.985 515.548C129.922 515.539 129.85 515.525 129.769 515.507C129.688 515.48 129.607 515.449 129.526 515.413C129.454 515.377 129.391 515.332 129.337 515.278C129.283 515.224 129.256 515.161 129.256 515.089C129.256 514.999 129.288 514.918 129.351 514.846C129.423 514.765 129.504 514.693 129.594 514.63C129.693 514.558 129.792 514.5 129.891 514.455C129.989 514.401 130.075 514.36 130.147 514.333C130.336 513.074 130.516 511.819 130.687 510.569C130.858 509.318 131.011 508.054 131.145 506.777C131.181 506.435 131.213 506.088 131.24 505.738C131.267 505.387 131.294 505.036 131.321 504.685C131.357 504.334 131.397 503.988 131.442 503.646C131.496 503.304 131.568 502.962 131.658 502.62C131.739 502.297 131.874 502.036 132.063 501.838C132.252 501.64 132.531 501.541 132.9 501.541C133.008 501.541 133.111 501.55 133.21 501.568C133.318 501.586 133.413 501.622 133.493 501.676C133.727 501.793 133.97 502.112 134.222 502.634C134.474 503.156 134.726 503.79 134.978 504.537C135.23 505.274 135.468 506.075 135.693 506.939C135.927 507.802 136.138 508.639 136.327 509.449C136.516 510.258 136.678 510.991 136.813 511.648C136.948 512.296 137.047 512.777 137.11 513.092C137.299 513.065 137.488 513.043 137.677 513.025C137.866 512.998 138.055 512.984 138.243 512.984C138.333 512.984 138.437 512.989 138.554 512.998C138.671 513.007 138.779 513.034 138.878 513.079C138.986 513.114 139.071 513.173 139.134 513.254C139.206 513.326 139.242 513.425 139.242 513.551ZM135.005 513.443C134.771 512.165 134.515 510.901 134.236 509.651C133.966 508.391 133.646 507.137 133.278 505.886C133.116 507.244 132.94 508.594 132.751 509.934C132.562 511.275 132.36 512.615 132.144 513.956C132.63 513.884 133.107 513.807 133.574 513.726C134.051 513.636 134.528 513.542 135.005 513.443ZM147.46 502.405C147.46 502.728 147.366 502.994 147.177 503.201C146.997 503.408 146.749 503.547 146.435 503.619C145.931 503.727 145.413 503.785 144.883 503.794C144.361 503.794 143.844 503.808 143.331 503.835V506.507C143.331 508.774 143.398 511.036 143.533 513.294C143.677 515.543 143.907 517.797 144.221 520.055C144.248 520.19 144.275 520.325 144.302 520.46C144.338 520.595 144.356 520.73 144.356 520.865C144.356 521.081 144.298 521.238 144.181 521.337C144.073 521.436 143.916 521.485 143.709 521.485C143.547 521.485 143.344 521.463 143.101 521.418C142.868 521.382 142.683 521.324 142.548 521.243C142.368 521.135 142.251 521.027 142.197 520.919C142.152 520.802 142.116 520.649 142.089 520.46C141.99 519.821 141.923 519.182 141.887 518.544C141.851 517.905 141.81 517.266 141.765 516.627C141.658 515.26 141.568 513.897 141.496 512.539C141.424 511.18 141.388 509.817 141.388 508.45C141.388 507.703 141.392 506.961 141.401 506.223C141.41 505.486 141.415 504.735 141.415 503.97C140.857 504.024 140.295 504.078 139.728 504.132C139.17 504.186 138.608 504.213 138.041 504.213C137.906 504.213 137.798 504.181 137.717 504.118C137.627 504.046 137.582 503.943 137.582 503.808C137.582 503.493 137.686 503.25 137.893 503.079C138.1 502.899 138.347 502.773 138.635 502.701C139.094 502.602 139.561 502.539 140.038 502.512C140.515 502.477 140.992 502.432 141.469 502.378C141.469 502.288 141.473 502.202 141.482 502.121C141.491 502.031 141.509 501.955 141.536 501.892C141.572 501.82 141.622 501.761 141.685 501.716C141.747 501.671 141.837 501.649 141.954 501.649C142.17 501.649 142.391 501.698 142.616 501.797C142.841 501.896 143.016 502.036 143.142 502.216L145.382 501.973C145.598 501.946 145.814 501.919 146.03 501.892C146.246 501.856 146.461 501.838 146.677 501.838C146.776 501.838 146.871 501.842 146.961 501.851C147.06 501.86 147.145 501.887 147.217 501.932C147.289 501.968 147.348 502.027 147.393 502.108C147.438 502.18 147.46 502.279 147.46 502.405ZM105.385 547.029C105.385 547.29 105.317 547.538 105.183 547.772C105.048 547.997 104.863 548.163 104.629 548.271C104.557 548.307 104.382 548.343 104.103 548.379C103.824 548.406 103.523 548.433 103.199 548.46C102.875 548.487 102.565 548.514 102.268 548.541C101.98 548.568 101.777 548.586 101.66 548.595C101.634 548.748 101.562 548.856 101.445 548.919C101.328 548.973 101.202 549 101.067 549C100.914 549 100.738 548.977 100.54 548.932C100.343 548.887 100.167 548.838 100.014 548.784C99.6094 548.838 99.2 548.896 98.7862 548.959C98.3724 549.022 97.9541 549.054 97.5312 549.054C97.2074 549.054 97.0455 548.901 97.0455 548.595C97.0455 548.289 97.1309 548.055 97.3018 547.893C97.4728 547.731 97.6797 547.61 97.9226 547.529C98.1655 547.448 98.4264 547.394 98.7052 547.367C98.9841 547.34 99.2315 547.308 99.4474 547.272C99.4025 544.717 99.353 542.181 99.299 539.662C99.254 537.143 99.2315 534.606 99.2315 532.051C98.8627 532.078 98.5028 532.105 98.152 532.132C97.8011 532.15 97.4503 532.159 97.0994 532.159C97.0275 532.159 96.951 532.159 96.87 532.159C96.7891 532.15 96.7126 532.136 96.6406 532.118C96.5777 532.091 96.5237 532.055 96.4787 532.01C96.4247 531.956 96.3977 531.88 96.3977 531.781C96.3977 531.61 96.4337 531.462 96.5057 531.336C96.5777 531.201 96.6721 531.093 96.7891 531.012C96.915 530.922 97.05 530.85 97.1939 530.796C97.3378 530.742 97.4863 530.701 97.6392 530.674C98.026 530.602 98.4174 530.544 98.8132 530.499C99.218 530.445 99.6184 530.396 100.014 530.351C100.419 530.297 100.819 530.243 101.215 530.189C101.62 530.135 102.02 530.063 102.416 529.973C102.794 529.892 103.172 529.788 103.55 529.662C103.928 529.527 104.314 529.46 104.71 529.46C104.926 529.46 105.07 529.541 105.142 529.703C105.214 529.856 105.25 530.027 105.25 530.216C105.25 530.369 105.232 530.517 105.196 530.661C105.169 530.796 105.106 530.926 105.007 531.052C104.953 531.124 104.832 531.196 104.643 531.268C104.463 531.331 104.242 531.39 103.982 531.444C103.73 531.498 103.455 531.552 103.158 531.606C102.87 531.651 102.587 531.695 102.308 531.74C102.038 531.776 101.791 531.808 101.566 531.835C101.341 531.862 101.175 531.88 101.067 531.889C101.166 533.139 101.233 534.39 101.269 535.64C101.314 536.891 101.35 538.141 101.377 539.392C101.404 540.642 101.431 541.893 101.458 543.143C101.485 544.394 101.535 545.644 101.607 546.895C102.119 546.814 102.637 546.737 103.158 546.665C103.68 546.584 104.206 546.544 104.737 546.544C104.89 546.544 105.034 546.58 105.169 546.652C105.313 546.715 105.385 546.841 105.385 547.029ZM114.966 538.609C114.966 538.987 114.957 539.428 114.939 539.931C114.93 540.426 114.898 540.957 114.844 541.524C114.799 542.091 114.727 542.671 114.628 543.265C114.539 543.858 114.417 544.439 114.264 545.005C114.111 545.572 113.922 546.107 113.697 546.611C113.472 547.115 113.203 547.556 112.888 547.934C112.573 548.311 112.209 548.613 111.795 548.838C111.381 549.054 110.909 549.162 110.378 549.162C109.847 549.162 109.366 549.04 108.934 548.797C108.502 548.545 108.138 548.217 107.841 547.812C107.598 547.488 107.382 547.092 107.193 546.625C107.013 546.148 106.851 545.631 106.707 545.073C106.572 544.515 106.455 543.935 106.357 543.332C106.258 542.729 106.177 542.136 106.114 541.551C106.06 540.966 106.019 540.413 105.992 539.891C105.965 539.36 105.952 538.897 105.952 538.501C105.952 537.835 105.979 537.138 106.033 536.409C106.096 535.681 106.208 534.961 106.37 534.25C106.532 533.531 106.752 532.838 107.031 532.172C107.31 531.507 107.67 530.908 108.111 530.378C108.156 530.324 108.21 530.261 108.273 530.189C108.345 530.117 108.421 530.049 108.502 529.986C108.583 529.914 108.664 529.856 108.745 529.811C108.835 529.757 108.92 529.73 109.001 529.73C109.082 529.73 109.159 529.752 109.231 529.797C109.312 529.842 109.379 529.901 109.433 529.973C109.622 529.865 109.82 529.788 110.027 529.743C110.243 529.698 110.459 529.676 110.675 529.676C111.331 529.676 111.894 529.833 112.361 530.148C112.838 530.454 113.234 530.859 113.549 531.363C113.864 531.866 114.116 532.438 114.305 533.076C114.494 533.715 114.637 534.367 114.736 535.033C114.835 535.699 114.898 536.342 114.925 536.963C114.952 537.583 114.966 538.132 114.966 538.609ZM112.861 539.203C112.861 538.969 112.852 538.614 112.834 538.137C112.825 537.651 112.793 537.12 112.739 536.544C112.685 535.96 112.609 535.361 112.51 534.75C112.42 534.138 112.294 533.585 112.132 533.09C111.97 532.586 111.768 532.177 111.525 531.862C111.291 531.538 111.008 531.376 110.675 531.376C110.54 531.376 110.418 531.439 110.31 531.565C110.202 531.691 110.099 531.853 110 532.051C109.901 532.249 109.811 532.465 109.73 532.699C109.649 532.932 109.568 533.157 109.487 533.373C109.406 533.589 109.33 533.783 109.258 533.954C109.186 534.124 109.109 534.246 109.028 534.318C109.001 534.345 108.956 534.363 108.893 534.372C108.839 534.372 108.785 534.372 108.731 534.372C108.579 534.372 108.435 534.345 108.3 534.291C108.147 534.903 108.039 535.514 107.976 536.126C107.922 536.729 107.895 537.341 107.895 537.961C107.895 538.15 107.904 538.434 107.922 538.811C107.94 539.189 107.967 539.621 108.003 540.107C108.039 540.593 108.088 541.114 108.151 541.672C108.214 542.23 108.291 542.788 108.381 543.346C108.471 543.894 108.574 544.425 108.691 544.938C108.817 545.442 108.961 545.891 109.123 546.287C109.285 546.674 109.465 546.984 109.663 547.218C109.861 547.452 110.081 547.569 110.324 547.569C110.459 547.569 110.58 547.533 110.688 547.461C110.796 547.38 110.9 547.299 110.999 547.218C111.268 546.976 111.502 546.656 111.7 546.26C111.898 545.864 112.065 545.428 112.2 544.951C112.334 544.475 112.447 543.975 112.537 543.453C112.627 542.923 112.694 542.401 112.739 541.888C112.784 541.375 112.816 540.89 112.834 540.431C112.852 539.963 112.861 539.554 112.861 539.203ZM125.343 547.866C125.343 548.028 125.325 548.19 125.289 548.352C125.262 548.505 125.208 548.644 125.127 548.77C125.055 548.887 124.956 548.982 124.83 549.054C124.704 549.126 124.542 549.162 124.344 549.162C124.101 549.162 123.904 549.108 123.751 549C123.607 548.901 123.472 548.757 123.346 548.568C123.175 548.325 123.022 548.046 122.887 547.731C122.752 547.407 122.631 547.079 122.523 546.746C122.415 546.404 122.311 546.067 122.212 545.734C122.122 545.392 122.032 545.077 121.942 544.789C121.457 543.278 121.002 541.771 120.579 540.269C120.166 538.766 119.72 537.26 119.244 535.748C119.199 537.7 119.163 539.644 119.136 541.578C119.118 543.512 119.109 545.455 119.109 547.407C119.109 547.506 119.104 547.619 119.095 547.745C119.086 547.871 119.064 547.992 119.028 548.109C118.992 548.217 118.933 548.311 118.852 548.392C118.78 548.473 118.677 548.514 118.542 548.514C118.083 548.514 117.732 548.392 117.489 548.15C117.255 547.898 117.138 547.542 117.138 547.083C117.138 544.556 117.143 542.05 117.152 539.567C117.161 537.084 117.165 534.588 117.165 532.078V530.162C117.165 529.955 117.201 529.784 117.273 529.649C117.354 529.505 117.525 529.433 117.786 529.433C117.966 529.433 118.15 529.46 118.339 529.514C118.528 529.559 118.695 529.631 118.839 529.73C118.992 529.829 119.113 529.959 119.203 530.121C119.302 530.274 119.351 530.459 119.351 530.674C119.729 531.394 120.044 532.136 120.296 532.901C120.557 533.666 120.809 534.435 121.052 535.208C121.403 536.333 121.749 537.458 122.091 538.582C122.433 539.707 122.779 540.84 123.13 541.983C123.076 540.282 123.017 538.587 122.954 536.895C122.9 535.195 122.788 533.499 122.617 531.808C122.572 531.439 122.518 531.079 122.455 530.728C122.401 530.378 122.374 530.018 122.374 529.649C122.374 529.46 122.437 529.334 122.563 529.271C122.689 529.199 122.833 529.163 122.995 529.163C123.274 529.163 123.512 529.186 123.71 529.231C123.908 529.276 124.074 529.352 124.209 529.46C124.344 529.568 124.448 529.716 124.52 529.905C124.592 530.085 124.65 530.315 124.695 530.593C124.749 531.079 124.79 531.57 124.817 532.064C124.853 532.55 124.884 533.031 124.911 533.508C124.992 534.714 125.051 535.91 125.087 537.098C125.123 538.285 125.154 539.482 125.181 540.687C125.208 541.884 125.239 543.08 125.275 544.277C125.32 545.464 125.343 546.661 125.343 547.866Z" fill="#001D55"/>
<path d="M77.5628 489.289L61.2349 510.452L69.0364 516.561L85.3643 495.399L77.5628 489.289Z" fill="#FFDD90"/>
<path d="M207.577 520.746L191.246 541.909L199.048 548.019L215.378 526.857L207.577 520.746Z" fill="#FFDD90"/>
<path opacity="0.95" d="M171.75 563.077H107.849C105.332 563.077 103.294 561.021 103.294 558.487V558.472C103.294 555.937 105.334 553.883 107.849 553.883H171.75C174.267 553.883 176.305 555.938 176.305 558.472V558.487C176.307 561.023 174.267 563.077 171.75 563.077Z" fill="#FDFDFD" stroke="#FDFDFD" stroke-width="0.484154" stroke-miterlimit="10"/>
<path d="M465.359 232.943C465.359 232.943 472.49 310.523 458.969 375.263C451.463 386.783 441.783 392.203 428.196 391.218C384.707 388.066 300.211 380.306 297.703 376.069C244.569 355.552 300.704 319.952 316.328 318.271C368.253 312.684 330.851 332.601 410.913 333.094C410.957 333.094 427.46 217.703 427.46 217.703C426.053 213.333 415.073 182.261 422.456 185.659C429.839 189.054 429.254 196.356 431.559 197.872C433.865 199.388 434.194 148.637 439.721 149.835C447.535 151.525 441.014 183.812 445.741 180.691C450.467 177.57 450.51 148.239 455.076 149.325C462.343 151.054 453.008 182.42 456.29 182.192C459.573 181.964 460.24 153.925 465.351 154.756C472.58 155.929 463.478 190.628 467.153 188.141C470.825 185.651 472.736 165.972 476.136 167.41C479.535 168.85 465.359 232.943 465.359 232.943Z" fill="#E37F4C"/>
<path d="M418.34 390.479C421.797 390.746 425.109 390.996 428.194 391.22C441.783 392.205 451.461 386.787 458.967 375.265C461.179 371.873 460.561 359.806 462.246 356.028C441.103 355.989 422.182 369.98 418.34 390.479Z" fill="#FF7261"/>
<path d="M323.003 331.487L340.652 316.74C340.652 316.74 378.17 317.687 383.222 325.93L349.774 399.452L323.003 331.487Z" fill="#FF5168"/>
<path d="M395.443 227.053C395.443 227.053 456.146 229.616 483.238 176.535C483.238 176.535 506.337 225.827 466.854 247.273C427.372 268.719 395.443 227.053 395.443 227.053Z" fill="#021127"/>
<g opacity="0.26">
<path d="M410.467 236.587C434.259 236.122 457.384 225.944 473.86 208.635C475.133 207.299 473.115 205.26 471.84 206.6C455.879 223.368 433.529 233.258 410.469 233.709C408.629 233.744 408.623 236.623 410.467 236.587Z" fill="#FCFCFC"/>
</g>
<path d="M382.176 306.462C429.213 279.867 476.248 253.273 523.283 226.68C536.645 219.125 550.008 211.57 563.371 204.014C564.975 203.108 563.536 200.621 561.928 201.529C514.891 228.124 467.856 254.717 420.821 281.31C407.459 288.866 394.096 296.421 380.734 303.976C379.129 304.882 380.568 307.37 382.176 306.462Z" fill="#001D55"/>
<path d="M403.691 149.05C401.32 146.682 398.873 143.588 399.392 139.986C399.736 137.595 401.298 135.595 403.001 133.992C407.94 129.343 415.08 128.696 420.671 132.733C427.087 137.364 428.603 145.582 427.931 153.017C427.245 160.6 425.243 168.292 428.706 175.503C429.506 177.171 431.971 175.712 431.173 174.05C427.789 167.004 430.446 158.898 430.906 151.514C431.303 145.11 429.861 138.626 425.727 133.608C421.806 128.846 415.626 126.364 409.535 127.371C405 128.12 400.716 131.334 398.244 135.208C394.628 140.872 397.34 146.763 401.669 151.086C402.979 152.391 404.999 150.357 403.691 149.05Z" fill="#001D55"/>
<path d="M432.461 177.89C466.996 178.963 501.349 184.261 534.61 193.699C544.065 196.381 553.42 199.405 562.669 202.734C564.404 203.358 565.151 200.578 563.429 199.957C530.652 188.159 496.492 180.413 461.858 176.93C452.085 175.948 442.28 175.317 432.463 175.012C430.623 174.954 430.625 177.833 432.461 177.89Z" fill="#001D55"/>
<path d="M429.872 174.546C409.443 205.392 392.664 239.062 382.635 274.828C379.827 284.843 377.588 295.014 375.967 305.292C375.682 307.105 378.435 307.885 378.724 306.057C384.473 269.59 398.117 234.747 416.05 202.672C421.137 193.573 426.588 184.685 432.341 175.999C433.363 174.454 430.888 173.011 429.872 174.546Z" fill="#001D55"/>
<path d="M392.305 218.287C392.305 218.287 418.187 268.139 463.868 245.824C509.551 223.508 479.476 171.343 479.476 171.343L518.182 174.589C518.182 174.589 528.924 249.548 570.436 254.081L577.201 256.017L740.154 429.035L500.144 565.378L419.104 338.38L419.391 338.957C429.232 331.613 423.804 294.091 405.741 284.465L378.282 252.793L392.305 218.287Z" fill="#1B4170"/>
<path d="M507.061 502.796C469.373 471.764 431.162 353.083 423.524 346.604L501.632 565.056L584.468 515.866C557.811 529.447 520.79 514.101 507.061 502.796Z" fill="#7DA4D4"/>
<path d="M445.737 293.086C453.091 293.086 453.104 281.572 445.737 281.572C438.383 281.57 438.37 293.086 445.737 293.086Z" fill="#FCFCFC"/>
<path d="M523.138 328.086C530.492 328.086 530.504 316.571 523.138 316.571C515.784 316.571 515.771 328.086 523.138 328.086Z" fill="#FCFCFC"/>
<path d="M477.036 403.815C484.39 403.815 484.402 392.301 477.036 392.301C469.682 392.301 469.669 403.815 477.036 403.815Z" fill="#FCFCFC"/>
<path d="M515.72 263.896C523.074 263.896 523.087 252.382 515.72 252.382C508.367 252.382 508.354 263.896 515.72 263.896Z" fill="#FCFCFC"/>
<path d="M625.171 376.572C632.525 376.572 632.537 365.057 625.171 365.057C617.815 365.055 617.804 376.572 625.171 376.572Z" fill="#FCFCFC"/>
<path d="M551.668 477.006C559.021 477.006 559.034 465.491 551.668 465.491C544.314 465.491 544.301 477.006 551.668 477.006Z" fill="#FCFCFC"/>
<path d="M557.843 403.621C565.197 403.621 565.21 392.106 557.843 392.106C550.49 392.106 550.477 403.621 557.843 403.621Z" fill="#FCFCFC"/>
<path d="M667.204 442.694C674.558 442.694 674.57 431.18 667.204 431.18C659.85 431.178 659.837 442.694 667.204 442.694Z" fill="#FCFCFC"/>
<path d="M594.076 303.39C601.43 303.39 601.443 291.876 594.076 291.876C586.72 291.876 586.709 303.39 594.076 303.39Z" fill="#FCFCFC"/>
<path d="M511.309 513.905C518.662 513.905 518.675 502.39 511.309 502.39C503.955 502.39 503.942 513.905 511.309 513.905Z" fill="#FCFCFC"/>
<path d="M404.759 261.196C412.112 261.196 412.125 249.681 404.759 249.681C397.403 249.681 397.392 261.196 404.759 261.196Z" fill="#FCFCFC"/>
<path d="M505.01 198.85C512.364 198.85 512.377 187.336 505.01 187.336C497.656 187.336 497.643 198.85 505.01 198.85Z" fill="#FCFCFC"/>
<path d="M466.325 338.769C473.679 338.769 473.692 327.255 466.325 327.255C458.972 327.255 458.959 338.769 466.325 338.769Z" fill="#FCFCFC"/>
<path d="M610.715 432.946C618.069 432.946 618.082 421.432 610.715 421.432C603.362 421.43 603.349 432.946 610.715 432.946Z" fill="#FCFCFC"/>
<path d="M504.631 460.522C511.984 460.522 511.997 449.007 504.631 449.007C497.277 449.005 497.264 460.522 504.631 460.522Z" fill="#FCFCFC"/>
<path d="M568.583 337.083C575.937 337.083 575.95 325.568 568.583 325.568C561.228 325.567 561.217 337.083 568.583 337.083Z" fill="#FCFCFC"/>
<path d="M507.625 372.158C514.979 372.158 514.992 360.644 507.625 360.644C500.271 360.642 500.258 372.158 507.625 372.158Z" fill="#FCFCFC"/>
<path d="M555.538 275.674C562.892 275.674 562.905 264.159 555.538 264.159C548.182 264.159 548.171 275.674 555.538 275.674Z" fill="#FCFCFC"/>
<path d="M444.022 365.509C451.376 365.509 451.389 353.995 444.022 353.995C436.668 353.995 436.655 365.509 444.022 365.509Z" fill="#FCFCFC"/>
<path d="M676.771 399.904C684.124 399.904 684.137 388.39 676.771 388.39C669.417 388.39 669.404 399.904 676.771 399.904Z" fill="#FCFCFC"/>
<path d="M600.935 482.046C608.289 482.046 608.302 470.531 600.935 470.531C593.581 470.531 593.569 482.046 600.935 482.046Z" fill="#FCFCFC"/>
<path d="M482.586 283.574C489.94 283.574 489.953 272.06 482.586 272.06C475.231 272.058 475.22 283.574 482.586 283.574Z" fill="#FCFCFC"/>
<path d="M730.05 655.196L798.885 653.505L796.951 562.602L764.681 610.977L725.754 607.842L730.05 655.196Z" fill="#FF9080"/>
<path d="M798.504 655.698L802.912 557.069C802.912 557.069 759.098 567.316 762.644 611.272L778.516 619.611L765.585 656.453L798.504 655.698Z" fill="#FCFCFC"/>
<path d="M763.418 597.55L781.187 605.869" stroke="#0D264F" stroke-width="2.04653" stroke-miterlimit="10"/>
<path d="M765.504 590.747L783.273 599.066" stroke="#0D264F" stroke-width="2.04653" stroke-miterlimit="10"/>
<path d="M735.603 599.765L732.731 661.099L264.416 673.867L317.767 528.031L735.603 599.765Z" fill="#021127"/>
<path d="M469.417 556.341L266.784 670.306L316.951 528.593L469.417 556.341Z" fill="#021127"/>
<path d="M705.368 594.522L698.581 662.056" stroke="#FCFCFC" stroke-width="3.57611" stroke-miterlimit="10"/>
<path d="M349.377 493.434L347.574 506.978L237.818 519.43L239.15 503.13L349.377 493.434Z" fill="#FF9080" stroke="#FF9080" stroke-width="4.65007" stroke-miterlimit="10" stroke-linecap="round" stroke-linejoin="round"/>
<path d="M345.061 320.925L340.033 227.579C343.497 221.687 341.497 195.305 337.38 189.826C326.104 174.819 321.832 159.205 303.426 155.44C282.226 151.104 252.831 157.373 244.508 177.833C241.143 186.105 198.122 274.881 242.701 289.987" fill="#000307"/>
<path d="M345.061 320.925L340.033 227.579C343.497 221.687 341.497 195.305 337.38 189.826C326.104 174.819 321.832 159.205 303.426 155.44C282.226 151.104 252.831 157.373 244.508 177.833C241.143 186.105 198.122 274.881 242.701 289.987" stroke="#000307" stroke-width="1.85821" stroke-miterlimit="10"/>
<path d="M274.129 215.883C273.796 216.723 272.843 217.125 272.014 216.764C268.547 215.253 260.851 211.066 255.805 219.651C250.703 228.33 257.227 237.255 262.369 239.807C263.854 240.545 267.226 242.363 267.775 243.926C269.456 248.728 267.701 256.886 266.095 267.303C262.548 290.315 251.293 309.24 251.293 309.24C251.293 309.24 308.865 350.204 308.512 321.109C308.116 288.517 310.872 266.868 311.235 266.723C316.922 272.983 336.584 267.555 341.355 228.068C345.772 191.49 320.931 183.54 314.407 182.005C308.9 180.711 290.664 174.183 274.129 215.883Z" fill="#F58952"/>
<path d="M258.616 223.978C258.616 223.978 269.035 214.829 269.312 233.216L258.616 223.978Z" fill="#C9551A"/>
<path d="M309.03 228.741C313.578 230.578 315.773 235.748 313.934 240.289C312.094 244.83 306.916 247.023 302.37 245.186C297.822 243.349 295.627 238.18 297.467 233.638C299.305 229.099 304.482 226.906 309.03 228.741Z" fill="#F56820"/>
<path d="M336.962 246.571C333.522 244.289 332.041 239.833 333.65 235.861C334.89 232.799 337.65 230.803 340.71 230.393C340.71 230.393 340.307 240.903 336.962 246.571Z" fill="#F56820"/>
<path d="M333.632 243.22L317.243 238.109C317.243 238.109 321.412 248.048 325.828 247.544C330.243 247.04 333.632 243.22 333.632 243.22Z" fill="white"/>
<path d="M329.033 231.264L326.729 237.748L330.273 238.256C330.926 238.35 331.443 237.711 331.211 237.092L329.033 231.264Z" fill="#D9654E"/>
<path d="M316.016 219.24C314.288 220.282 317.178 215.297 319.473 214.853C321.767 214.406 323.938 215.65 324.322 217.627C324.322 217.627 320.166 216.74 316.016 219.24Z" fill="black"/>
<path d="M341.681 220.239C343.25 221.507 341.072 216.174 338.86 215.418C336.649 214.661 334.327 215.596 333.674 217.503C333.674 217.503 337.915 217.193 341.681 220.239Z" fill="black"/>
<path d="M312.278 267.428C312.278 267.428 303.87 260.777 296.264 256.905C298.796 269.641 306.457 276.189 312.278 267.428Z" fill="#C9551A"/>
<path d="M308.797 317.583C311.382 320.53 321.334 317.114 320.169 316.054C336.299 341.075 357.398 381.91 358.894 405.647C360.726 434.753 364.952 510.187 364.952 510.187C364.386 513.844 254.101 523.757 226.123 522.161C209.038 474.624 194.526 391.085 203.267 353.778C203.267 353.778 202.163 348.886 216.86 332.492C220.015 328.972 247.746 300.719 249.404 298.567C249.404 298.567 316.225 348.447 308.797 317.583Z" fill="#FF5168"/>
<path d="M202.586 357.074C195.361 395.806 209.525 475.971 226.124 522.159C245.628 523.273 305.106 518.793 339.551 514.737C278.417 476.963 228.976 423.802 202.586 357.074Z" fill="#EE3C54"/>
<path d="M325.1 230.556C324.837 232.584 323.98 234.147 323.185 234.043C322.39 233.941 321.958 232.213 322.221 230.184C322.484 228.156 323.342 226.595 324.136 226.697C324.931 226.801 325.364 228.528 325.1 230.556Z" fill="black"/>
<path d="M336.032 230.615C335.769 232.643 334.911 234.204 334.117 234.102C333.322 234 332.891 232.273 333.153 230.245C333.416 228.217 334.273 226.656 335.068 226.758C335.864 226.86 336.295 228.588 336.032 230.615Z" fill="black"/>
<path d="M333.365 207.486C353.267 187.436 343.779 214.128 343.779 214.128L347.847 211.099C357.047 204.246 351.76 192.691 342.995 185.281C338.918 181.833 339.527 176.788 333.415 175.681C333.415 175.681 331.803 161.95 316.007 158.939C300.208 155.929 290.238 166.706 290.238 166.706C290.238 166.706 250.124 179.531 271.814 215.605C267.803 218.139 297.638 230.914 297.732 195.257C297.748 189.04 323.554 217.372 333.365 207.486Z" fill="#000307" stroke="#000307" stroke-width="1.85821" stroke-miterlimit="10"/>
<path d="M364.954 510.187L444.994 668.171L290.219 674.271C245.728 673.505 141.596 615.955 148.529 571.673L230.627 511.936L364.954 510.187Z" fill="#021127"/>
<path d="M349.234 231.075L347.469 230.901C346.515 230.806 345.815 229.95 345.909 228.986L345.946 228.615C346.04 227.653 346.89 226.949 347.847 227.044L349.611 227.218L349.234 231.075Z" fill="black" stroke="black" stroke-width="0.864879" stroke-miterlimit="10"/>
<path opacity="0.27" d="M327.599 228.43C326.833 236.302 321.119 242.182 314.834 241.561C308.549 240.94 304.077 234.056 304.842 226.184C305.607 218.311 311.322 212.432 317.607 213.053C323.89 213.674 328.364 220.558 327.599 228.43Z" fill="white"/>
<path d="M327.599 228.43C326.833 236.302 321.119 242.182 314.834 241.561C308.549 240.94 304.077 234.056 304.842 226.184C305.607 218.311 311.322 212.432 317.607 213.053C323.89 213.674 328.364 220.558 327.599 228.43Z" stroke="black" stroke-width="0.980728" stroke-miterlimit="10"/>
<path d="M349.871 230.313C349.124 237.987 344.455 243.807 339.441 243.312C334.428 242.817 330.967 236.194 331.714 228.521C332.461 220.847 337.131 215.027 342.144 215.522C347.158 216.016 350.618 222.639 349.871 230.313Z" stroke="black" stroke-width="0.864879" stroke-miterlimit="10"/>
<path d="M349.871 230.313C349.124 237.987 344.455 243.807 339.441 243.312C334.428 242.817 330.967 236.194 331.714 228.521C332.461 220.847 337.131 215.027 342.144 215.522C347.158 216.016 350.618 222.639 349.871 230.313Z" stroke="black" stroke-width="0.864879" stroke-miterlimit="10"/>
<path opacity="0.27" d="M349.871 230.313C349.124 237.987 344.455 243.807 339.441 243.312C334.428 242.817 330.967 236.194 331.714 228.521C332.461 220.847 337.131 215.027 342.144 215.522C347.158 216.016 350.618 222.639 349.871 230.313Z" fill="white"/>
<path opacity="0.27" d="M319.029 213.312C318.567 213.192 318.092 213.103 317.607 213.055C312.998 212.6 308.698 215.642 306.43 220.4C310.722 218.207 314.902 215.807 319.029 213.312Z" fill="white"/>
<path opacity="0.27" d="M325.325 218.172C324.977 217.62 324.602 217.093 324.188 216.615C317.883 220.51 311.478 224.228 304.766 227.386C304.744 228.128 304.783 228.851 304.849 229.564C311.717 225.846 318.534 222.03 325.325 218.172Z" fill="white"/>
<path opacity="0.27" d="M308.195 237.933C309.934 239.969 312.228 241.303 314.833 241.561C321.118 242.182 326.833 236.302 327.598 228.43C327.662 227.763 327.686 227.105 327.677 226.456C321.269 230.43 314.791 234.289 308.195 237.933Z" fill="white"/>
<path opacity="0.27" d="M335.549 241.466C339.921 239.101 344.393 236.945 348.91 234.879C349.383 233.466 349.716 231.933 349.874 230.315C350.133 227.637 349.874 225.095 349.223 222.89C343.628 226.743 338.062 230.645 331.803 233.323C332.272 236.764 333.628 239.681 335.549 241.466Z" fill="white"/>
<path opacity="0.27" d="M344.368 216.182C343.671 215.826 342.928 215.599 342.146 215.522C338.284 215.14 334.628 218.508 332.811 223.581C336.645 221.088 340.503 218.63 344.368 216.182Z" fill="white"/>
<path d="M349.871 230.313C349.124 237.987 344.455 243.807 339.441 243.312C334.428 242.817 330.967 236.194 331.714 228.521C332.461 220.847 337.131 215.027 342.144 215.522C347.158 216.016 350.618 222.639 349.871 230.313Z" stroke="black" stroke-width="0.864879" stroke-miterlimit="10"/>
<path d="M327.332 229.928C327.332 229.928 330.099 223.937 331.493 230.339" stroke="black" stroke-width="0.980728" stroke-miterlimit="10"/>
<path d="M304.625 226.671L302.861 226.497C301.906 226.402 301.207 225.546 301.3 224.582L301.337 224.211C301.431 223.249 302.281 222.545 303.238 222.639L305.002 222.814L304.625 226.671Z" fill="black" stroke="black" stroke-width="0.864879" stroke-miterlimit="10"/>
<path d="M304.772 224.736L280.25 220.078" stroke="black" stroke-width="0.864879" stroke-miterlimit="10"/>
<path d="M677.051 385.896H429.674V680.346H677.051V385.896Z" fill="#FAA53C"/>
<path d="M643.265 592.365L450.829 600.934L461.459 539.879L642.201 543.093L643.265 592.365Z" fill="#FAA53C"/>
<path opacity="0.95" d="M648.58 535.593H459.332V591.291H648.58V535.593Z" fill="#FDFDFD" stroke="#FDFDFD" stroke-width="0.677112" stroke-miterlimit="10"/>
<path d="M511.133 552.201C511.133 553.547 511.013 554.874 510.774 556.183C510.535 557.479 510.139 558.693 509.585 559.825C509.044 560.958 508.327 561.99 507.433 562.921C506.54 563.839 505.445 564.594 504.149 565.185C503.822 565.336 503.464 565.475 503.074 565.601C502.696 565.726 502.3 565.833 501.885 565.921C501.482 566.01 501.079 566.079 500.677 566.129C500.274 566.179 499.897 566.205 499.544 566.205C499.406 566.205 499.249 566.198 499.072 566.186C498.909 566.186 498.752 566.161 498.601 566.11C498.45 566.072 498.324 566.003 498.223 565.903C498.123 565.802 498.072 565.664 498.072 565.487C498.072 565.336 498.104 565.179 498.167 565.016C498.229 564.852 498.311 564.695 498.412 564.544C498.525 564.393 498.645 564.261 498.771 564.147C498.896 564.022 499.028 563.927 499.167 563.864C499.104 563.764 499.041 563.481 498.978 563.015C498.928 562.549 498.877 561.958 498.827 561.241C498.789 560.524 498.752 559.725 498.714 558.844C498.676 557.951 498.638 557.032 498.601 556.088C498.575 555.145 498.55 554.207 498.525 553.276C498.513 552.333 498.5 551.464 498.487 550.672C498.475 549.879 498.462 549.193 498.45 548.615C498.45 548.023 498.45 547.595 498.45 547.331C498.45 546.148 498.469 544.985 498.506 543.84C498.544 542.695 498.563 541.531 498.563 540.348C498.425 540.348 498.292 540.31 498.167 540.235C498.053 540.159 497.997 540.046 497.997 539.895C497.997 539.694 498.047 539.511 498.148 539.348C498.248 539.172 498.374 539.021 498.525 538.895C498.689 538.769 498.865 538.675 499.054 538.612C499.255 538.536 499.444 538.498 499.62 538.498C499.796 538.498 499.966 538.517 500.129 538.555C500.293 538.58 500.463 538.612 500.639 538.649C502.312 539.052 503.803 539.662 505.112 540.48C506.421 541.298 507.515 542.292 508.396 543.462C509.289 544.632 509.969 545.953 510.434 547.426C510.9 548.898 511.133 550.489 511.133 552.201ZM508.339 551.861C508.339 550.603 508.188 549.42 507.886 548.313C507.584 547.193 507.131 546.174 506.527 545.255C505.936 544.324 505.187 543.506 504.282 542.802C503.388 542.084 502.35 541.493 501.167 541.028V541.103C501.167 544.349 501.218 547.57 501.318 550.766C501.432 553.949 501.595 557.158 501.809 560.392C501.847 560.882 501.878 561.373 501.903 561.864C501.941 562.342 501.998 562.82 502.073 563.298C503.256 562.908 504.25 562.304 505.055 561.486C505.861 560.668 506.502 559.737 506.98 558.693C507.471 557.636 507.817 556.516 508.018 555.334C508.232 554.138 508.339 552.981 508.339 551.861ZM525.363 551.219C525.363 551.748 525.35 552.364 525.325 553.069C525.313 553.761 525.269 554.503 525.193 555.296C525.13 556.088 525.03 556.9 524.891 557.73C524.765 558.561 524.596 559.372 524.382 560.165C524.168 560.958 523.904 561.706 523.589 562.411C523.274 563.116 522.897 563.732 522.457 564.261C522.016 564.789 521.507 565.211 520.928 565.525C520.349 565.827 519.688 565.978 518.946 565.978C518.204 565.978 517.531 565.808 516.927 565.469C516.323 565.116 515.813 564.657 515.398 564.091C515.058 563.638 514.756 563.084 514.492 562.43C514.24 561.763 514.014 561.04 513.813 560.259C513.624 559.479 513.46 558.668 513.322 557.825C513.183 556.982 513.07 556.151 512.982 555.334C512.907 554.516 512.85 553.742 512.812 553.012C512.775 552.27 512.756 551.622 512.756 551.068C512.756 550.137 512.793 549.162 512.869 548.143C512.957 547.124 513.114 546.117 513.341 545.123C513.567 544.116 513.875 543.148 514.266 542.217C514.656 541.285 515.159 540.449 515.775 539.706C515.838 539.631 515.914 539.543 516.002 539.442C516.103 539.341 516.209 539.247 516.323 539.159C516.436 539.058 516.549 538.977 516.662 538.914C516.788 538.838 516.908 538.8 517.021 538.8C517.134 538.8 517.241 538.832 517.342 538.895C517.455 538.958 517.55 539.04 517.625 539.14C517.889 538.989 518.166 538.882 518.455 538.819C518.757 538.756 519.059 538.725 519.361 538.725C520.28 538.725 521.066 538.945 521.721 539.386C522.387 539.813 522.941 540.38 523.381 541.084C523.822 541.789 524.174 542.588 524.438 543.481C524.703 544.374 524.904 545.287 525.042 546.218C525.181 547.149 525.269 548.048 525.306 548.917C525.344 549.785 525.363 550.552 525.363 551.219ZM522.419 552.05C522.419 551.722 522.406 551.225 522.381 550.559C522.369 549.879 522.324 549.137 522.249 548.332C522.173 547.514 522.067 546.677 521.928 545.821C521.802 544.966 521.626 544.192 521.4 543.5C521.173 542.795 520.89 542.223 520.55 541.782C520.223 541.329 519.827 541.103 519.361 541.103C519.173 541.103 519.003 541.191 518.852 541.367C518.701 541.543 518.556 541.77 518.418 542.047C518.279 542.323 518.153 542.625 518.04 542.953C517.927 543.28 517.814 543.594 517.7 543.896C517.587 544.198 517.48 544.469 517.38 544.708C517.279 544.947 517.172 545.117 517.059 545.217C517.021 545.255 516.958 545.28 516.87 545.293C516.795 545.293 516.719 545.293 516.644 545.293C516.43 545.293 516.228 545.255 516.04 545.18C515.826 546.035 515.675 546.891 515.587 547.746C515.511 548.589 515.473 549.445 515.473 550.313C515.473 550.577 515.486 550.974 515.511 551.502C515.536 552.031 515.574 552.635 515.624 553.314C515.675 553.994 515.744 554.723 515.832 555.503C515.92 556.283 516.027 557.064 516.153 557.844C516.279 558.611 516.423 559.354 516.587 560.071C516.763 560.775 516.964 561.404 517.191 561.958C517.417 562.499 517.669 562.933 517.946 563.26C518.223 563.587 518.531 563.751 518.871 563.751C519.059 563.751 519.229 563.701 519.38 563.6C519.531 563.487 519.676 563.374 519.814 563.26C520.192 562.921 520.519 562.474 520.796 561.92C521.073 561.367 521.305 560.756 521.494 560.09C521.683 559.423 521.84 558.724 521.966 557.995C522.092 557.252 522.186 556.523 522.249 555.805C522.312 555.088 522.356 554.409 522.381 553.767C522.406 553.113 522.419 552.54 522.419 552.05ZM539.877 564.166C539.877 564.393 539.852 564.619 539.801 564.846C539.763 565.06 539.688 565.255 539.575 565.431C539.474 565.594 539.336 565.726 539.16 565.827C538.983 565.928 538.757 565.978 538.48 565.978C538.14 565.978 537.864 565.903 537.65 565.752C537.448 565.613 537.26 565.412 537.083 565.148C536.844 564.808 536.63 564.418 536.442 563.978C536.253 563.525 536.083 563.065 535.932 562.6C535.781 562.122 535.636 561.65 535.498 561.184C535.372 560.706 535.246 560.266 535.121 559.863C534.441 557.749 533.806 555.642 533.214 553.541C532.636 551.439 532.013 549.332 531.346 547.218C531.283 549.948 531.233 552.666 531.195 555.371C531.17 558.076 531.157 560.794 531.157 563.525C531.157 563.663 531.151 563.82 531.138 563.996C531.126 564.173 531.094 564.342 531.044 564.506C530.994 564.657 530.912 564.789 530.799 564.902C530.698 565.016 530.553 565.072 530.365 565.072C529.723 565.072 529.232 564.902 528.892 564.563C528.565 564.21 528.402 563.713 528.402 563.072C528.402 559.536 528.408 556.032 528.421 552.559C528.433 549.086 528.439 545.595 528.439 542.084V539.404C528.439 539.115 528.49 538.876 528.59 538.687C528.704 538.486 528.943 538.385 529.308 538.385C529.559 538.385 529.817 538.423 530.081 538.498C530.346 538.561 530.578 538.662 530.78 538.8C530.994 538.939 531.163 539.121 531.289 539.348C531.428 539.562 531.497 539.82 531.497 540.122C532.025 541.128 532.466 542.166 532.818 543.236C533.183 544.305 533.535 545.381 533.875 546.463C534.366 548.036 534.85 549.609 535.328 551.181C535.806 552.754 536.291 554.34 536.781 555.937C536.706 553.559 536.624 551.188 536.536 548.822C536.461 546.444 536.303 544.072 536.064 541.707C536.001 541.191 535.926 540.688 535.838 540.197C535.762 539.706 535.725 539.203 535.725 538.687C535.725 538.423 535.813 538.247 535.989 538.159C536.165 538.058 536.366 538.008 536.593 538.008C536.983 538.008 537.316 538.039 537.593 538.102C537.87 538.165 538.103 538.272 538.291 538.423C538.48 538.574 538.625 538.782 538.725 539.046C538.826 539.297 538.908 539.618 538.971 540.008C539.046 540.688 539.103 541.374 539.141 542.066C539.191 542.745 539.235 543.418 539.273 544.085C539.386 545.771 539.468 547.444 539.518 549.105C539.568 550.766 539.612 552.44 539.65 554.126C539.688 555.799 539.732 557.472 539.782 559.146C539.845 560.807 539.877 562.48 539.877 564.166ZM556.334 555.334C556.334 555.598 556.24 555.875 556.051 556.164C555.862 556.453 555.655 556.667 555.428 556.806C555.365 556.843 555.258 556.881 555.107 556.919C554.957 556.957 554.793 556.994 554.617 557.032C554.453 557.057 554.29 557.089 554.126 557.126C553.975 557.152 553.856 557.171 553.767 557.183L554.22 559.976C554.359 560.845 554.46 561.719 554.522 562.6C554.598 563.468 554.761 564.33 555.013 565.185C555.038 565.261 555.063 565.33 555.089 565.393C555.114 565.456 555.126 565.538 555.126 565.638C555.126 565.802 555.076 565.928 554.975 566.016C554.887 566.104 554.774 566.167 554.636 566.205C554.51 566.255 554.371 566.286 554.22 566.299C554.069 566.312 553.931 566.318 553.805 566.318H553.541C553.151 566.318 552.849 566.286 552.635 566.223C552.434 566.161 552.276 566.054 552.163 565.903C552.05 565.752 551.975 565.563 551.937 565.336C551.899 565.097 551.855 564.808 551.805 564.468C551.503 562.166 551.163 559.863 550.785 557.561C550.005 557.661 549.219 557.756 548.426 557.844C547.646 557.932 546.86 558.014 546.067 558.089L545.463 561.788C545.438 562.015 545.4 562.323 545.35 562.713C545.312 563.103 545.262 563.506 545.199 563.921C545.149 564.324 545.086 564.701 545.01 565.053C544.947 565.406 544.872 565.664 544.784 565.827C544.708 565.978 544.639 566.085 544.576 566.148C544.513 566.211 544.394 566.242 544.218 566.242C543.991 566.242 543.765 566.198 543.538 566.11C543.324 566.035 543.129 565.921 542.953 565.77C542.789 565.632 542.657 565.462 542.557 565.261C542.456 565.06 542.406 564.833 542.406 564.581C542.406 564.33 542.431 564.078 542.481 563.827C542.544 563.575 542.594 563.323 542.632 563.072C542.771 562.241 542.896 561.417 543.01 560.599C543.123 559.769 543.249 558.945 543.387 558.127C543.299 558.114 543.198 558.095 543.085 558.07C542.972 558.032 542.859 557.988 542.745 557.938C542.645 557.888 542.557 557.825 542.481 557.749C542.406 557.674 542.368 557.586 542.368 557.485C542.368 557.359 542.412 557.246 542.5 557.145C542.601 557.032 542.714 556.931 542.84 556.843C542.978 556.743 543.117 556.661 543.255 556.598C543.393 556.523 543.513 556.466 543.614 556.428C543.878 554.667 544.129 552.911 544.369 551.163C544.608 549.414 544.822 547.646 545.01 545.859C545.061 545.381 545.105 544.897 545.142 544.406C545.18 543.915 545.218 543.424 545.256 542.934C545.306 542.443 545.363 541.959 545.425 541.48C545.501 541.002 545.602 540.524 545.727 540.046C545.841 539.593 546.029 539.228 546.294 538.951C546.558 538.675 546.948 538.536 547.464 538.536C547.615 538.536 547.759 538.549 547.898 538.574C548.049 538.599 548.181 538.649 548.294 538.725C548.621 538.889 548.961 539.335 549.313 540.065C549.666 540.795 550.018 541.682 550.37 542.726C550.723 543.758 551.056 544.878 551.371 546.086C551.698 547.293 551.993 548.464 552.258 549.596C552.522 550.728 552.748 551.754 552.937 552.672C553.126 553.578 553.264 554.251 553.352 554.692C553.616 554.654 553.881 554.623 554.145 554.597C554.409 554.56 554.673 554.541 554.938 554.541C555.063 554.541 555.208 554.547 555.372 554.56C555.535 554.572 555.686 554.61 555.825 554.673C555.976 554.723 556.095 554.805 556.183 554.918C556.284 555.019 556.334 555.157 556.334 555.334ZM550.408 555.183C550.081 553.396 549.722 551.628 549.332 549.879C548.955 548.118 548.508 546.362 547.992 544.613C547.766 546.513 547.52 548.401 547.256 550.275C546.992 552.15 546.709 554.025 546.407 555.9C547.086 555.799 547.753 555.692 548.407 555.579C549.074 555.453 549.741 555.321 550.408 555.183ZM567.828 539.744C567.828 540.197 567.696 540.568 567.432 540.858C567.18 541.147 566.834 541.342 566.394 541.443C565.689 541.594 564.966 541.675 564.223 541.688C563.494 541.688 562.77 541.707 562.053 541.745V545.482C562.053 548.652 562.147 551.817 562.336 554.975C562.537 558.12 562.858 561.272 563.299 564.43C563.336 564.619 563.374 564.808 563.412 564.997C563.462 565.185 563.487 565.374 563.487 565.563C563.487 565.865 563.405 566.085 563.242 566.223C563.091 566.362 562.871 566.431 562.581 566.431C562.355 566.431 562.072 566.4 561.732 566.337C561.405 566.286 561.147 566.205 560.958 566.091C560.707 565.94 560.543 565.789 560.468 565.638C560.405 565.475 560.354 565.261 560.317 564.997C560.178 564.103 560.084 563.21 560.033 562.317C559.983 561.423 559.926 560.53 559.864 559.637C559.713 557.724 559.587 555.818 559.486 553.918C559.385 552.018 559.335 550.112 559.335 548.199C559.335 547.155 559.341 546.117 559.354 545.085C559.367 544.054 559.373 543.003 559.373 541.933C558.593 542.009 557.806 542.084 557.014 542.16C556.234 542.235 555.447 542.273 554.655 542.273C554.466 542.273 554.315 542.229 554.202 542.141C554.076 542.04 554.013 541.896 554.013 541.707C554.013 541.267 554.158 540.927 554.447 540.688C554.736 540.436 555.082 540.26 555.485 540.159C556.127 540.021 556.781 539.933 557.448 539.895C558.115 539.845 558.782 539.782 559.448 539.706C559.448 539.581 559.455 539.461 559.467 539.348C559.48 539.222 559.505 539.115 559.543 539.027C559.593 538.926 559.662 538.844 559.75 538.782C559.838 538.719 559.964 538.687 560.128 538.687C560.43 538.687 560.738 538.756 561.053 538.895C561.367 539.033 561.613 539.228 561.789 539.48L564.922 539.14C565.224 539.102 565.526 539.065 565.828 539.027C566.13 538.977 566.432 538.951 566.733 538.951C566.872 538.951 567.004 538.958 567.13 538.97C567.268 538.983 567.388 539.021 567.488 539.084C567.589 539.134 567.671 539.216 567.734 539.329C567.797 539.43 567.828 539.568 567.828 539.744ZM508.981 601.996C508.981 602.361 508.887 602.707 508.698 603.034C508.509 603.349 508.251 603.581 507.924 603.732C507.823 603.783 507.578 603.833 507.188 603.883C506.798 603.921 506.376 603.959 505.924 603.997C505.471 604.034 505.036 604.072 504.621 604.11C504.219 604.148 503.936 604.173 503.772 604.185C503.734 604.399 503.634 604.55 503.47 604.638C503.306 604.714 503.13 604.752 502.942 604.752C502.728 604.752 502.482 604.72 502.205 604.657C501.929 604.594 501.683 604.525 501.469 604.45C500.903 604.525 500.331 604.607 499.752 604.695C499.173 604.783 498.588 604.827 497.997 604.827C497.544 604.827 497.317 604.613 497.317 604.185C497.317 603.758 497.437 603.43 497.676 603.204C497.915 602.978 498.204 602.808 498.544 602.694C498.884 602.581 499.249 602.506 499.639 602.468C500.029 602.43 500.375 602.386 500.677 602.336C500.614 598.762 500.545 595.214 500.469 591.691C500.406 588.168 500.375 584.62 500.375 581.047C499.859 581.084 499.356 581.122 498.865 581.16C498.374 581.185 497.883 581.198 497.393 581.198C497.292 581.198 497.185 581.198 497.072 581.198C496.959 581.185 496.852 581.166 496.751 581.141C496.663 581.103 496.587 581.053 496.525 580.99C496.449 580.915 496.411 580.808 496.411 580.669C496.411 580.43 496.462 580.223 496.562 580.046C496.663 579.858 496.795 579.707 496.959 579.593C497.135 579.468 497.324 579.367 497.525 579.291C497.726 579.216 497.934 579.159 498.148 579.122C498.689 579.021 499.236 578.939 499.79 578.876C500.356 578.801 500.916 578.732 501.469 578.669C502.036 578.593 502.596 578.518 503.149 578.442C503.715 578.367 504.275 578.266 504.829 578.14C505.357 578.027 505.886 577.882 506.414 577.706C506.943 577.517 507.484 577.423 508.037 577.423C508.339 577.423 508.541 577.536 508.641 577.763C508.742 577.977 508.792 578.216 508.792 578.48C508.792 578.694 508.767 578.901 508.717 579.103C508.679 579.291 508.591 579.474 508.453 579.65C508.377 579.751 508.207 579.851 507.943 579.952C507.691 580.04 507.383 580.122 507.018 580.197C506.666 580.273 506.282 580.348 505.867 580.424C505.464 580.487 505.068 580.55 504.678 580.613C504.3 580.663 503.954 580.707 503.64 580.745C503.325 580.782 503.093 580.808 502.942 580.82C503.08 582.569 503.174 584.318 503.225 586.067C503.288 587.816 503.338 589.565 503.376 591.314C503.413 593.063 503.451 594.812 503.489 596.561C503.527 598.31 503.596 600.058 503.696 601.807C504.414 601.694 505.137 601.587 505.867 601.487C506.597 601.373 507.333 601.317 508.075 601.317C508.289 601.317 508.49 601.367 508.679 601.468C508.88 601.556 508.981 601.732 508.981 601.996ZM522.381 590.219C522.381 590.748 522.369 591.364 522.343 592.069C522.331 592.761 522.287 593.503 522.211 594.296C522.148 595.088 522.048 595.9 521.909 596.73C521.783 597.561 521.614 598.372 521.4 599.165C521.186 599.958 520.922 600.706 520.607 601.411C520.292 602.116 519.915 602.732 519.475 603.261C519.034 603.789 518.525 604.211 517.946 604.525C517.367 604.827 516.706 604.978 515.964 604.978C515.222 604.978 514.549 604.808 513.945 604.469C513.341 604.116 512.831 603.657 512.416 603.091C512.076 602.638 511.774 602.084 511.51 601.43C511.258 600.763 511.032 600.04 510.831 599.259C510.642 598.479 510.478 597.668 510.34 596.825C510.201 595.982 510.088 595.151 510 594.334C509.925 593.516 509.868 592.742 509.83 592.012C509.793 591.27 509.774 590.622 509.774 590.068C509.774 589.137 509.811 588.162 509.887 587.143C509.975 586.124 510.132 585.117 510.359 584.123C510.585 583.116 510.894 582.148 511.284 581.217C511.674 580.285 512.177 579.449 512.793 578.706C512.856 578.631 512.932 578.543 513.02 578.442C513.121 578.341 513.228 578.247 513.341 578.159C513.454 578.058 513.567 577.977 513.68 577.914C513.806 577.838 513.926 577.8 514.039 577.8C514.152 577.8 514.259 577.832 514.36 577.895C514.473 577.958 514.568 578.04 514.643 578.14C514.907 577.989 515.184 577.882 515.473 577.819C515.775 577.756 516.077 577.725 516.379 577.725C517.298 577.725 518.084 577.945 518.739 578.386C519.405 578.813 519.959 579.38 520.399 580.084C520.84 580.789 521.192 581.588 521.456 582.481C521.721 583.374 521.922 584.287 522.06 585.218C522.199 586.149 522.287 587.048 522.324 587.917C522.362 588.785 522.381 589.552 522.381 590.219ZM519.437 591.05C519.437 590.722 519.424 590.225 519.399 589.559C519.387 588.879 519.342 588.137 519.267 587.332C519.191 586.514 519.085 585.677 518.946 584.821C518.82 583.966 518.644 583.192 518.418 582.5C518.191 581.795 517.908 581.223 517.568 580.782C517.241 580.329 516.845 580.103 516.379 580.103C516.191 580.103 516.021 580.191 515.87 580.367C515.719 580.543 515.574 580.77 515.436 581.047C515.297 581.323 515.171 581.625 515.058 581.953C514.945 582.28 514.832 582.594 514.719 582.896C514.605 583.198 514.498 583.469 514.398 583.708C514.297 583.947 514.19 584.117 514.077 584.217C514.039 584.255 513.976 584.28 513.888 584.293C513.813 584.293 513.737 584.293 513.662 584.293C513.448 584.293 513.246 584.255 513.058 584.18C512.844 585.035 512.693 585.891 512.605 586.746C512.529 587.589 512.491 588.445 512.491 589.313C512.491 589.577 512.504 589.974 512.529 590.502C512.554 591.031 512.592 591.635 512.642 592.314C512.693 592.994 512.762 593.723 512.85 594.503C512.938 595.283 513.045 596.064 513.171 596.844C513.297 597.611 513.441 598.354 513.605 599.071C513.781 599.775 513.982 600.404 514.209 600.958C514.435 601.499 514.687 601.933 514.964 602.26C515.241 602.587 515.549 602.751 515.889 602.751C516.077 602.751 516.247 602.701 516.398 602.6C516.549 602.487 516.694 602.374 516.832 602.26C517.21 601.921 517.537 601.474 517.814 600.92C518.091 600.367 518.323 599.756 518.512 599.09C518.701 598.423 518.858 597.724 518.984 596.995C519.11 596.252 519.204 595.523 519.267 594.805C519.33 594.088 519.374 593.409 519.399 592.767C519.424 592.113 519.437 591.54 519.437 591.05ZM536.895 603.166C536.895 603.393 536.87 603.619 536.819 603.846C536.781 604.06 536.706 604.255 536.593 604.431C536.492 604.594 536.354 604.726 536.178 604.827C536.001 604.928 535.775 604.978 535.498 604.978C535.158 604.978 534.882 604.903 534.668 604.752C534.466 604.613 534.278 604.412 534.101 604.148C533.862 603.808 533.648 603.418 533.46 602.978C533.271 602.525 533.101 602.065 532.95 601.6C532.799 601.122 532.654 600.65 532.516 600.184C532.39 599.706 532.264 599.266 532.139 598.863C531.459 596.749 530.824 594.642 530.232 592.541C529.654 590.439 529.031 588.332 528.364 586.218C528.301 588.948 528.251 591.666 528.213 594.371C528.188 597.076 528.175 599.794 528.175 602.525C528.175 602.663 528.169 602.82 528.156 602.996C528.144 603.173 528.112 603.342 528.062 603.506C528.012 603.657 527.93 603.789 527.817 603.902C527.716 604.016 527.571 604.072 527.383 604.072C526.741 604.072 526.25 603.902 525.91 603.563C525.583 603.21 525.42 602.713 525.42 602.072C525.42 598.536 525.426 595.032 525.439 591.559C525.451 588.086 525.457 584.595 525.457 581.084V578.404C525.457 578.115 525.508 577.876 525.608 577.687C525.722 577.486 525.961 577.385 526.326 577.385C526.577 577.385 526.835 577.423 527.099 577.498C527.364 577.561 527.596 577.662 527.798 577.8C528.012 577.939 528.181 578.121 528.307 578.348C528.446 578.562 528.515 578.82 528.515 579.122C529.043 580.128 529.484 581.166 529.836 582.236C530.201 583.305 530.553 584.381 530.893 585.463C531.384 587.036 531.868 588.609 532.346 590.181C532.824 591.754 533.309 593.34 533.799 594.937C533.724 592.559 533.642 590.188 533.554 587.822C533.479 585.444 533.321 583.072 533.082 580.707C533.019 580.191 532.944 579.688 532.856 579.197C532.78 578.706 532.743 578.203 532.743 577.687C532.743 577.423 532.831 577.247 533.007 577.159C533.183 577.058 533.384 577.008 533.611 577.008C534.001 577.008 534.334 577.039 534.611 577.102C534.888 577.165 535.121 577.272 535.309 577.423C535.498 577.574 535.643 577.782 535.743 578.046C535.844 578.297 535.926 578.618 535.989 579.008C536.064 579.688 536.121 580.374 536.159 581.066C536.209 581.745 536.253 582.418 536.291 583.085C536.404 584.771 536.486 586.444 536.536 588.105C536.586 589.766 536.63 591.44 536.668 593.126C536.706 594.799 536.75 596.472 536.8 598.146C536.863 599.807 536.895 601.48 536.895 603.166Z" fill="#001D55"/>
<path d="M470.053 522.383L447.216 551.981L458.128 560.527L480.965 530.928L470.053 522.383Z" fill="#FFDD90"/>
<path d="M651.847 566.298L629.01 595.897L639.922 604.442L662.759 574.844L651.847 566.298Z" fill="#FFDD90"/>
<path d="M924.428 385.896H677.051V680.346H924.428V385.896Z" fill="#FACB61"/>
<path d="M608.365 506.423H360.988L426.331 383.368H673.708L608.365 506.423Z" fill="#FFE7B3"/>
<path d="M741.06 506.423H988.437L923.094 383.368H675.717L741.06 506.423Z" fill="#FFE7B3"/>
<path opacity="0.95" d="M897.082 659.624H809.453C806.003 659.624 803.205 656.806 803.205 653.329V653.308C803.205 649.833 806.002 647.014 809.453 647.014H897.082C900.532 647.014 903.33 649.831 903.33 653.308V653.329C903.33 656.806 900.533 659.624 897.082 659.624Z" fill="#FDFDFD" stroke="#FDFDFD" stroke-width="0.663951" stroke-miterlimit="10"/>
<path d="M892.207 637.546H816.283C809.045 637.546 803.176 631.633 803.176 624.341V572.806C803.176 565.514 809.045 559.601 816.283 559.601H892.207C899.444 559.601 905.313 565.514 905.313 572.806V624.341C905.313 631.633 899.444 637.546 892.207 637.546Z" fill="#FDFDFD" stroke="#FDFDFD" stroke-width="0.669697" stroke-miterlimit="10"/>
<path d="M983.912 275.894C913.977 281.001 873.161 127.721 873.161 127.721C872.942 123.238 872.322 91.0298 866.434 96.6017C860.547 102.174 863.741 108.691 862.067 110.848C860.392 113.006 841.79 66.4606 836.9 69.3912C829.984 73.5376 847.896 101.058 842.22 99.7565C836.543 98.4552 825.934 71.5042 821.929 74.0177C815.552 78.0177 835.844 103.756 832.6 104.637C829.358 105.516 818.612 79.9602 813.988 82.4181C807.45 85.8935 828.716 114.776 824.282 113.706C819.848 112.637 810.916 95.1781 808.162 97.6285C805.407 100.079 842.152 154.302 842.152 154.302C842.152 154.302 843.028 284.063 957.561 326.951L983.912 275.894Z" fill="#FF9072"/>
<path d="M911.95 313.676L949.451 254.45C949.451 254.45 991.007 284.063 1037.63 283.042C1084.25 282.02 1062.97 334.098 1055.87 343.288C1048.78 352.478 959.586 360.649 911.95 313.676Z" fill="#63B8A2"/>
<path d="M775.501 138.045C775.501 138.045 819.965 179.758 874.807 157.178C874.807 157.178 860.543 209.76 816.703 200.188C772.864 190.617 775.501 138.045 775.501 138.045Z" fill="#EE3C54"/>
<g opacity="0.26">
<path d="M780.679 155.056C799.057 170.29 823.142 177.786 846.852 175.427C848.664 175.247 848.684 172.366 846.852 172.548C823.924 174.828 800.511 167.784 782.699 153.02C781.29 151.851 779.257 153.877 780.679 155.056Z" fill="#FCFCFC"/>
</g>
<path d="M714.044 189.656C766.943 200.264 819.841 210.872 872.742 221.48C887.769 224.494 902.799 227.508 917.826 230.522C919.622 230.882 920.391 228.109 918.586 227.746C865.688 217.138 812.789 206.53 759.889 195.921C744.861 192.908 729.832 189.894 714.804 186.88C713.008 186.52 712.239 189.295 714.044 189.656Z" fill="#001D55"/>
<path d="M832.115 84.3011C831.741 79.8377 832.409 74.8849 837.069 73.0851C840.565 71.7339 845.282 71.9452 848.555 73.7079C854.647 76.9887 857.007 84.2492 855.491 90.7868C853.986 97.2706 849.51 101.741 844.778 106.042C840.265 110.144 835.652 114.407 834.072 120.548C833.61 122.342 836.364 123.108 836.828 121.313C838.585 114.492 844.6 110.257 849.427 105.651C854.597 100.716 858.648 94.5551 858.825 87.15C858.985 80.3993 855.337 73.6486 849.126 70.7904C845.271 69.0165 840.125 68.8534 836.133 70.3752C830.299 72.5995 828.777 78.5365 829.259 84.3011C829.412 86.1324 832.269 86.1491 832.115 84.3011Z" fill="#001D55"/>
<path d="M835.273 124.87C860.85 148.337 883.581 174.895 902.774 203.894C908.202 212.094 913.337 220.483 918.195 229.038C919.108 230.645 921.579 229.197 920.663 227.585C903.433 197.245 882.558 169.023 858.583 143.753C851.732 136.531 844.625 129.56 837.293 122.833C835.937 121.59 833.91 123.621 835.273 124.87Z" fill="#001D55"/>
<path d="M835.634 120.681C800.057 130.772 765.408 145.424 734.613 166.172C726.059 171.934 717.832 178.183 709.998 184.904C708.596 186.107 710.625 188.135 712.018 186.939C739.933 162.987 772.907 145.467 807.256 132.881C816.847 129.367 826.572 126.242 836.393 123.456C838.16 122.957 837.409 120.179 835.634 120.681Z" fill="#001D55"/>
<path d="M778.772 129.332C778.772 129.332 765.791 171.499 814.901 184.47C864.009 197.442 875.299 150.771 875.299 150.771L921.657 198.589C921.657 198.589 945.548 242.424 951.535 267.051L905.645 295.331L894.896 279.12L880.969 373.155L700.549 336.975L721.628 238.128L707.029 249.257L659.278 200.637L716.483 154.324L778.772 129.332Z" fill="#FF5168"/>
<path d="M726.148 276.695C723.471 267.03 721.297 257.195 719.674 247.273L700.545 336.977L769.156 350.736C747.717 332.102 734.365 306.363 726.148 276.695Z" fill="#EE3C54"/>
<mask id="mask0_37_2338" style="mask-type:luminance" maskUnits="userSpaceOnUse" x="659" y="129" width="293" height="245">
<path d="M778.772 129.332C778.772 129.332 765.791 171.499 814.901 184.47C864.009 197.442 875.299 150.771 875.299 150.771L921.657 198.589C921.657 198.589 945.548 242.424 951.535 267.051L905.645 295.331L894.896 279.12L880.969 373.155L700.549 336.975L721.628 238.128L707.029 249.257L659.278 200.637L716.483 154.324L778.772 129.332Z" fill="white"/>
</mask>
<g mask="url(#mask0_37_2338)">
<path d="M698.564 158.491C705.487 170.838 707.496 185.748 703.737 199.455C700.302 211.98 692.27 222.99 681.527 230.15C680 231.168 681.429 233.663 682.969 232.636C694.332 225.06 702.856 213.481 706.493 200.22C710.454 185.779 708.326 170.044 701.033 157.038C700.126 155.425 697.657 156.875 698.564 158.491Z" fill="#000307"/>
<path d="M688.06 163.347C684.668 179.117 696.597 191.798 708.227 200.287C714.543 204.897 721.085 209.132 727.064 214.2C732.65 218.934 737.864 224.115 742.637 229.679C761.67 251.876 774.158 281.364 771.973 311.072C770.72 328.108 761.775 347.035 743.179 349.646C741.365 349.9 742.138 352.675 743.939 352.423C758.605 350.364 768.871 337.62 772.688 323.919C776.819 309.096 775.365 292.567 771.507 277.839C764.008 249.218 745.527 224.068 722.053 206.58C714.559 200.997 706.365 196.241 699.841 189.444C693.479 182.815 688.793 173.512 690.814 164.114C691.205 162.307 688.45 161.534 688.06 163.347Z" fill="#000307"/>
<path d="M757.264 129.21C751.626 140.426 751.236 153.152 753.212 165.358C755.019 176.518 758.528 187.727 764.371 197.438C769.716 206.317 777.358 213.972 787.29 217.338C798.481 221.132 811.139 218.702 820.993 212.454C832.1 205.412 839.581 193.901 843.893 181.618C844.508 179.868 841.748 179.115 841.137 180.852C837.48 191.277 831.414 201.114 822.579 207.861C813.695 214.647 801.809 218.042 790.815 215.366C770.615 210.45 760.907 188.202 756.921 169.642C754.153 156.746 753.67 142.72 759.731 130.663C760.561 129.013 758.095 127.554 757.264 129.21Z" fill="#000307"/>
<path d="M790.228 355.2C788.928 350.067 788.527 344.775 789.134 339.505C789.436 336.881 790.002 334.286 790.788 331.767C791.584 329.213 792.519 325.722 795.373 324.836C797.755 324.097 800.513 324.794 802.87 325.318C805.407 325.884 807.905 326.61 810.432 327.224C814.895 328.306 819.601 329.079 824.129 327.9C832.401 325.75 837.102 317.982 842.336 311.874C848.251 304.972 855.822 299.244 864.596 296.68C874.584 293.759 886.002 295.42 893.904 302.521C895.273 303.75 897.301 301.722 895.924 300.486C888.841 294.121 879.182 291.55 869.826 292.682C860.27 293.839 851.555 298.769 844.603 305.331C841.111 308.627 838.263 312.441 835.205 316.126C832.187 319.763 828.756 323.448 824.138 324.905C818.411 326.712 812.395 324.76 806.814 323.324C802.634 322.247 797.034 320.395 792.964 322.76C790.904 323.958 789.827 326.11 788.988 328.258C787.778 331.353 786.955 334.595 786.481 337.885C785.605 343.936 785.971 350.047 787.471 355.965C787.929 357.758 790.685 356.998 790.228 355.2Z" fill="#000307"/>
<path d="M887.204 165.258C873.593 180.825 868.059 203.199 873.325 223.333C878.379 242.651 893.796 257.457 912.829 262.654C923.257 265.503 934.455 265.303 944.599 261.438C946.303 260.79 945.565 258.006 943.84 258.662C926.514 265.262 906.388 260.667 892.422 248.732C877.602 236.069 871.801 216.091 875.159 197.064C877.098 186.078 881.893 175.677 889.224 167.293C890.437 165.909 888.424 163.864 887.204 165.258Z" fill="#000307"/>
<path d="M814.789 281.055C809.919 280.365 805.472 277.542 802.822 273.349C802.142 272.273 799.629 268.389 802.098 268.028C803.286 267.854 804.436 268.808 805.277 269.531C806.414 270.508 807.488 271.561 808.495 272.675C810.667 275.081 812.467 277.789 813.907 280.695C814.73 282.352 817.195 280.897 816.375 279.242C814.825 276.121 812.846 273.222 810.515 270.639C809.394 269.399 808.191 268.217 806.896 267.158C805.536 266.046 803.925 265.023 802.098 265.149C800.525 265.259 798.994 266.124 798.411 267.655C797.765 269.346 798.514 271.14 799.213 272.686C800.442 275.403 802.381 277.826 804.697 279.681C807.398 281.844 810.598 283.348 814.029 283.833C814.792 283.941 815.563 283.646 815.786 282.829C815.97 282.152 815.558 281.164 814.789 281.055Z" fill="#000307"/>
<path d="M859.396 200.391C856.695 201.186 854.025 202.313 851.775 204.039C849.586 205.718 847.615 208.09 847.107 210.895C846.633 213.529 847.545 216.88 850.539 217.421C854.02 218.05 856.487 214.593 858.205 212.098C860.393 208.923 862.111 205.444 863.392 201.803C863.649 201.071 863.099 200.228 862.394 200.033C861.605 199.814 860.895 200.304 860.637 201.038C859.706 203.685 858.503 206.22 857.05 208.619C856.314 209.833 855.521 211.017 854.658 212.146C853.968 213.047 853.098 214.066 852.012 214.489C850.117 215.229 849.632 212.954 849.88 211.572C850.253 209.486 851.723 207.694 853.344 206.428C855.342 204.867 857.745 203.879 860.153 203.169C861.916 202.648 861.167 199.868 859.396 200.391Z" fill="#000307"/>
<path d="M728.192 172.969C732.15 174.233 737.138 175.99 738.356 180.518C738.584 181.369 738.659 182.283 738.361 183.069C738.103 183.746 737.73 184.15 736.996 183.827C736.098 183.432 735.296 182.598 734.608 181.918C733.868 181.186 733.182 180.398 732.584 179.544C731.14 177.48 730.144 175.184 729.616 172.717C729.454 171.957 728.573 171.514 727.859 171.712C727.079 171.929 726.698 172.72 726.862 173.482C727.434 176.164 728.547 178.754 730.117 180.997C730.917 182.14 731.813 183.219 732.821 184.181C733.853 185.167 735.053 186.272 736.449 186.676C739.43 187.536 741.422 184.595 741.408 181.912C741.393 179.13 739.921 176.507 737.914 174.669C735.399 172.365 732.139 171.21 728.952 170.192C727.195 169.631 726.443 172.409 728.192 172.969Z" fill="#000307"/>
<path d="M733.8 333.485C740.5 331.655 745.985 325.757 747.177 318.828C747.736 315.579 747.372 310.984 743.497 310.043C739.693 309.119 736.497 312.697 734.894 315.705C732.641 319.935 731.675 324.814 732.171 329.588C732.252 330.367 732.769 331.019 733.601 331.029C734.311 331.036 735.11 330.361 735.029 329.588C734.672 326.158 735.082 322.743 736.289 319.512C737.22 317.023 738.988 313.342 741.926 312.817C744.857 312.295 744.714 316.539 744.37 318.345C743.851 321.058 742.614 323.626 740.815 325.715C738.749 328.113 736.088 329.876 733.038 330.708C731.266 331.192 732.019 333.97 733.8 333.485Z" fill="#000307"/>
<path d="M889.963 312.553C881.18 309.211 873.907 318.986 872.636 326.644C871.267 334.888 874.22 343.791 880.802 349.033C882.23 350.169 884.265 348.145 882.823 346.998C877.288 342.592 874.525 335.442 875.257 328.406C875.925 321.997 881.514 312.404 889.203 315.329C890.925 315.984 891.67 313.201 889.963 312.553Z" fill="#000307"/>
</g>
<path d="M671.136 191.974C686.201 207.922 700.375 224.723 713.57 242.272" stroke="#FCFCFC" stroke-width="1.15144" stroke-miterlimit="10"/>
<path d="M900.745 284.089C913.891 272.274 927.989 261.534 942.855 252.011" stroke="#FCFCFC" stroke-width="1.15144" stroke-miterlimit="10"/>
<path d="M765.005 136.718C764.03 147.981 769.428 158.767 775.46 168.3C781.16 177.306 787.738 186.016 796.506 192.02C811.142 202.042 830.841 203.215 847.328 196.733C863.814 190.253 877.074 176.743 885.147 160.876" stroke="#FCFCFC" stroke-width="1.15144" stroke-miterlimit="10"/>
<path d="M994.302 214.191C983.427 214.191 974.612 223.073 974.612 234.028C974.612 244.984 983.429 253.865 994.302 253.865C1005.18 253.865 1013.99 244.984 1013.99 234.028C1013.99 225.9 1009.14 218.914 1002.2 215.85" stroke="#FFE277" stroke-width="4.60614" stroke-miterlimit="10"/>
<path d="M868.874 631.505L879 684.502L806.271 683.852L842.268 662.139L830.957 628.519L868.874 631.505Z" fill="#FF9072"/>
<path d="M886.358 684.348L875.717 656.778L852.29 674.389L841.213 659.789C841.213 659.789 813.915 646.354 806.272 683.852L886.358 684.348Z" fill="#FFE277"/>
<path d="M836.356 669.044L830.664 657.881" stroke="#0D264F" stroke-width="1.6419" stroke-miterlimit="10"/>
<path d="M831.237 669.246L825.545 658.083" stroke="#0D264F" stroke-width="1.6419" stroke-miterlimit="10"/>
<path d="M1080.2 449.232C1077.38 454.355 1110.9 543.115 1042.95 571.768C969.792 608.708 863.217 512.516 863.217 512.516L881.035 640.695L827.542 641.043L786.159 474.47C777.726 440.043 808.565 408.889 842.758 417.291L990.499 453.827L989.739 448.466L1080.2 449.232Z" fill="#1B4170"/>
<path d="M1025.29 479.421C1025.29 479.421 1028.22 515.71 1003.49 530.355C979.556 548.239 854.45 440.928 831.171 455.608C802.365 470.746 849.109 613.123 849.109 613.123" stroke="#FAF1ED" stroke-width="1.15144" stroke-miterlimit="10"/>
<path d="M878.756 610.827L820.02 614.243" stroke="#FAF1ED" stroke-width="1.15144" stroke-miterlimit="10"/>
<path d="M1093.08 634.102L1142.74 630.296L1162.19 700.901L1126.36 671.042L1100.7 671.642L1093.08 634.102Z" fill="#FF9072"/>
<path d="M1143.24 625.855L1118.73 632.226L1140.46 658.953L1129.59 673.709C1129.59 673.709 1124.3 703.85 1162.19 700.903L1143.24 625.855Z" fill="#FFE277"/>
<path d="M1139.76 675.857L1130.68 684.451" stroke="#0D264F" stroke-width="1.6419" stroke-miterlimit="10"/>
<path d="M1141.36 680.758L1132.29 689.35" stroke="#0D264F" stroke-width="1.6419" stroke-miterlimit="10"/>
<path d="M1039.15 412.472C1043.62 416.221 1085.44 423.997 1095.8 480.079C1118.16 559.388 996.366 622.443 996.366 622.443L1099.72 627.967L1115.03 681.761L944.871 691.604C909.727 693.52 885.108 657.177 899.689 624.905L976.478 497.471L986.954 435.958L1039.15 412.472Z" fill="#1B4170"/>
<path opacity="0.32" d="M1072.57 477.973C1050.92 447.465 1015.73 450.188 985.153 464.624L1019.73 420.108C1024.2 423.858 1085.44 423.999 1095.8 480.081C1102.23 502.869 1096.74 524.311 1085.67 543.305C1091.1 521.23 1085.54 496.251 1072.57 477.973Z" fill="#D9D1CD" stroke="#D9D1CD" stroke-width="3.73088" stroke-miterlimit="10"/>
<path d="M1042.95 441.575C1042.95 441.575 1063.48 459.955 1060.44 475.273C1046.75 530.415 924.925 617.752 934.89 643.533C944.269 674.871 1079.86 654.438 1079.86 654.438" stroke="#FAF1ED" stroke-width="1.15144" stroke-miterlimit="10"/>
<path d="M1072.71 626.569L1087.49 684.202" stroke="#FAF1ED" stroke-width="1.15144" stroke-miterlimit="10"/>
<path d="M1037.08 241.429L987.26 194.165C985.104 187.573 992.675 161.805 997.893 157.245C1012.18 144.754 1019.7 130.164 1038.61 130.359C1060.4 130.585 1087.99 143.093 1091.84 165.186C1093.39 174.118 1094.79 225.21 1047.71 230.682" fill="#000307"/>
<path d="M1037.08 241.429L987.26 194.165C985.104 187.573 992.675 161.805 997.893 157.245C1012.18 144.754 1019.7 130.164 1038.61 130.359C1060.4 130.585 1087.99 143.093 1091.84 165.186C1093.39 174.118 1094.79 225.21 1047.71 230.682" stroke="#000307" stroke-width="1.85821" stroke-miterlimit="10"/>
<path d="M1054.6 196.636C1054.75 197.54 1055.6 198.144 1056.5 197.963C1060.23 197.203 1068.69 194.691 1071.84 204.293C1075.01 214 1066.7 221.468 1061.09 222.903C1059.48 223.318 1055.77 224.402 1054.9 225.837C1052.22 230.245 1046.87 250.536 1049.79 260.831C1057.39 287.635 1077.16 299.124 1077.16 299.124C1077.16 299.124 992.39 330.047 998.917 301.233C1006.23 268.957 1008.73 237.705 1008.41 237.485C1002.95 233.798 987.363 244.497 987.792 193.312C988.105 155.89 1015.41 154.519 1022.16 154.389C1027.86 154.283 1047.19 151.699 1054.6 196.636Z" fill="#FF9072" stroke="#FF9072" stroke-width="3.73088" stroke-miterlimit="10" stroke-linecap="round" stroke-linejoin="round"/>
<path d="M1068.15 207.99C1068.15 207.99 1059.84 196.678 1055.66 214.876L1068.15 207.99Z" fill="#C74F40"/>
<path d="M1018.66 205.056C1013.8 205.909 1010.54 210.572 1011.38 215.473C1012.23 220.374 1016.86 223.659 1021.72 222.808C1026.59 221.955 1029.85 217.292 1029 212.391C1028.15 207.488 1023.52 204.203 1018.66 205.056Z" fill="#FF754E" stroke="#FF754E" stroke-width="3.73088" stroke-miterlimit="10" stroke-linecap="round" stroke-linejoin="round"/>
<path d="M990.488 219.493C994.359 217.962 995.375 212.557 994.635 208.27C994.065 204.963 991.774 202.394 988.849 201.332C988.849 201.332 988.402 213.15 990.488 219.493Z" fill="#FF754E" stroke="#FF754E" stroke-width="3.73088" stroke-miterlimit="10" stroke-linecap="round" stroke-linejoin="round"/>
<path d="M990.526 207.872L1005.58 210.213C1005.58 210.213 1000.7 216.911 996.459 215.468C992.22 214.024 990.526 207.872 990.526 207.872Z" fill="white"/>
<path d="M997.303 200.174L998.192 207.104L994.597 206.852C993.933 206.806 993.561 206.061 993.92 205.495L997.303 200.174Z" fill="#C74F40"/>
<path d="M1012.67 191.017C1014.15 192.42 1012.36 186.854 1010.2 185.922C1008.04 184.989 1005.64 185.758 1004.84 187.642C1004.84 187.642 1009.12 187.647 1012.67 191.017Z" fill="black"/>
<path d="M987.2 186.524C985.388 187.447 988.664 182.618 990.999 182.34C993.336 182.062 995.422 183.486 995.659 185.519C995.659 185.519 991.555 184.303 987.2 186.524Z" fill="black"/>
<path d="M1006.29 237.343C1006.29 237.343 1016.87 238.726 1025.18 236.509C1019.98 248.613 1010.16 247.288 1006.29 237.343Z" fill="#C74F40"/>
<path d="M1003.14 280.636C1001.08 283.01 995.882 282.226 996.811 281.372C983.927 301.537 967.074 334.445 965.88 353.574C964.416 377.031 966.177 446.935 966.177 446.935C966.629 449.882 1106.32 449.345 1128.67 448.058C1137.79 406.703 1091.07 307.831 1079.33 294.619C1076.81 291.783 1059.73 275.079 1058.41 273.344C1058.41 273.344 1026.48 279.98 1003.14 280.636Z" fill="#7FC2B1"/>
<path d="M1001.33 200.311C1001.15 202.381 1001.67 204.114 1002.47 204.183C1003.27 204.252 1004.07 202.628 1004.24 200.557C1004.41 198.487 1003.9 196.754 1003.09 196.687C1002.29 196.619 1001.5 198.242 1001.33 200.311Z" fill="black"/>
<path d="M990.554 198.035C990.381 200.105 990.894 201.838 991.698 201.905C992.502 201.974 993.293 200.35 993.466 198.279C993.639 196.209 993.126 194.476 992.322 194.407C991.518 194.341 990.726 195.964 990.554 198.035Z" fill="black"/>
<path d="M1039.16 188.28C1011.4 192.673 998.509 157.777 998.509 157.777L988.338 178.658C988.338 178.658 984.948 143.392 1004.8 144.046C1004.8 144.046 1009.3 130.758 1025.49 131.145C1041.68 131.532 1049.2 144.363 1049.2 144.363C1049.2 144.363 1067.93 168.461 1056.95 196.854C1056.8 197.221 1056.65 197.59 1056.5 197.963C1056.5 197.963 1037.3 217.694 1039.16 188.28Z" fill="#000307" stroke="#000307" stroke-width="1.85821" stroke-miterlimit="10"/>
<path d="M1070.67 144.248C1064.03 139.829 1059.34 132.546 1058.04 124.637C1057.57 121.838 1057.53 118.919 1058.37 116.213C1059.63 112.189 1062.72 109.013 1066.02 106.428C1068.64 104.381 1071.54 102.563 1074.79 101.927C1081.37 100.641 1080.25 110.398 1086.1 113.708C1101.33 122.337 1096.36 129.516 1090.52 136.956C1084.68 144.396 1073.97 147.51 1065.09 144.348" fill="#000307"/>
<path d="M1079.94 145.425C1085.88 145.488 1091.73 142.07 1094.62 136.847C1097.51 131.623 1097.32 124.815 1094.15 119.76C1089.71 112.693 1080.92 110.029 1072.86 108.035" stroke="#000307" stroke-width="2.01873" stroke-miterlimit="10" stroke-linecap="round"/>
<path d="M1018.87 142.105C1012.23 137.686 1007.53 130.404 1006.23 122.494C1005.77 119.695 1005.72 116.776 1006.56 114.07C1007.82 110.046 1010.91 106.871 1014.21 104.285C1016.83 102.238 1019.73 100.42 1022.98 99.7843C1029.56 98.498 1030.95 103.084 1036.79 106.392C1052.03 115.021 1044.55 127.371 1038.71 134.811C1032.87 142.252 1022.16 145.366 1013.28 142.203" fill="#000307"/>
<path d="M1028.13 143.282C1034.07 143.345 1039.92 139.927 1042.81 134.704C1045.7 129.481 1043.47 123.49 1042.34 117.618C1038.43 97.2118 1029.5 98.0978 1021.05 105.892" stroke="#000307" stroke-width="2.01873" stroke-miterlimit="10" stroke-linecap="round"/>
<path d="M840.9 305.14C840.9 305.14 895.954 395.348 923.452 419.155C934.02 428.305 947.64 424.108 958.99 416.166C995.316 390.746 1051.41 360.608 1051.31 355.798C1086.68 310.999 1075.61 284.619 1061.04 291.431C1012.61 314.069 1016.15 324.871 946.408 367.287C946.369 367.311 865.796 272.688 865.796 272.688C864.663 268.345 857.464 236.96 852.842 243.635C848.222 250.309 852.682 256.024 851.486 258.484C850.29 260.943 822.557 219.264 818.371 223.149C812.452 228.645 835.616 251.848 829.794 251.755C823.973 251.663 808.073 227.496 804.67 230.788C799.25 236.028 824.374 256.995 821.381 258.53C818.388 260.065 802.64 237.292 798.62 240.658C792.934 245.418 819.657 269.259 815.1 269.134C810.543 269.008 798.227 253.783 796.034 256.752C793.842 259.722 840.9 305.14 840.9 305.14Z" fill="#FF9072"/>
<path d="M949.568 345.682C949.568 345.682 1049.33 261.338 1071.84 289.17C1127.5 357.997 988.82 405.083 988.82 405.083L949.568 345.682Z" fill="#91CFBF"/>
<path d="M967.207 410.384C964.329 412.418 961.568 414.362 958.99 416.166C947.64 424.108 936.246 424.716 923.452 419.156C919.684 417.519 919.809 411.239 916.292 409.009C934.761 397.882 952.764 395.497 967.207 410.384Z" fill="#FF754E"/>
<path d="M1065 214.191C1054.12 214.191 1045.31 223.073 1045.31 234.028C1045.31 244.984 1054.12 253.865 1065 253.865C1075.87 253.865 1084.69 244.984 1084.69 234.028C1084.69 225.9 1079.84 218.914 1072.89 215.85" stroke="#FFE277" stroke-width="4.60614" stroke-miterlimit="10"/>
<path d="M449.674 608.374C449.674 608.374 522.801 600.189 530.024 633.842C530.024 633.842 530.6 665.323 447.705 657.768L449.674 608.374Z" fill="#FCFCFC"/>
<path d="M420.783 602.007L454.025 608.652L468.633 615.65L467.73 651.123L451.316 656.858L413.562 658.399L420.783 602.007Z" fill="#F58952"/>
<path d="M479.465 648.393V619.288" stroke="#0D264F" stroke-width="1.87823" stroke-miterlimit="10"/>
<path d="M488.493 648.393V619.288" stroke="#0D264F" stroke-width="1.87823" stroke-miterlimit="10"/>
<path d="M442.075 604.801C442.075 604.801 137.579 453.473 116.715 577.683C94.2087 711.669 431.575 667.496 431.575 667.496L442.075 604.801Z" fill="#1B4170"/>
<path d="M395.168 669.778L405.429 592.988" stroke="#FCFCFC" stroke-width="3.44784" stroke-miterlimit="10"/>
<path d="M426.073 420.333C426.073 420.333 371.542 475.577 313.553 506.622C299.964 508.202 289.632 504.192 281.673 493.054C256.197 457.404 207.945 387.094 209.564 382.438C191.135 328.201 233.576 308.801 244.872 319.804C282.412 356.375 263.927 380.207 314.872 442.431C314.9 442.466 413.389 381.259 413.389 381.259C415.816 377.371 432.448 348.961 434.595 356.85C436.74 364.737 430.803 368.965 431.127 371.717C431.451 374.472 470.324 342.195 472.955 347.233C476.675 354.36 447.899 370.014 453.306 371.669C458.713 373.324 481.085 354.555 483.185 358.781C486.526 365.509 456.647 378.397 458.925 380.789C461.202 383.18 482.991 365.724 485.635 370.208C489.376 376.549 457.105 391.756 461.357 393C465.607 394.244 481.827 383.107 482.908 386.659C483.988 390.208 426.073 420.333 426.073 420.333Z" fill="#F58952"/>
<path d="M275.92 484.958C277.931 487.801 279.865 490.522 281.674 493.053C289.633 504.191 299.967 508.202 313.554 506.621C317.556 506.155 326.352 497.944 330.311 496.826C316.787 480.452 293.998 474.789 275.92 484.958Z" fill="#F56820"/>
<path d="M260.636 330.019L197.77 374.316L234.733 439.755L289.948 398.347L260.636 330.019Z" fill="#FF5168"/>
</svg>
