<svg width="30" height="30" viewBox="0 0 41 40" fill="none" xmlns="http://www.w3.org/2000/svg">
<path d="M7.02344 31.6668V28.3335H10.3568V16.6668C10.3568 14.3613 11.0512 12.3127 12.4401 10.521C13.829 8.72933 15.6345 7.55572 17.8568 7.00016V5.8335C17.8568 5.13905 18.0998 4.54877 18.5859 4.06266C19.072 3.57655 19.6623 3.3335 20.3568 3.3335C21.0512 3.3335 21.6415 3.57655 22.1276 4.06266C22.6137 4.54877 22.8568 5.13905 22.8568 5.8335V7.00016C25.079 7.55572 26.8845 8.72933 28.2734 10.521C29.6623 12.3127 30.3568 14.3613 30.3568 16.6668V28.3335H33.6901V31.6668H7.02344ZM20.3568 36.6668C19.4401 36.6668 18.6554 36.3404 18.0026 35.6877C17.3498 35.0349 17.0234 34.2502 17.0234 33.3335H23.6901C23.6901 34.2502 23.3637 35.0349 22.7109 35.6877C22.0582 36.3404 21.2734 36.6668 20.3568 36.6668ZM13.6901 28.3335H27.0234V16.6668C27.0234 14.8335 26.3707 13.2641 25.0651 11.9585C23.7595 10.6529 22.1901 10.0002 20.3568 10.0002C18.5234 10.0002 16.954 10.6529 15.6484 11.9585C14.3429 13.2641 13.6901 14.8335 13.6901 16.6668V28.3335Z" fill="#1C1C1C"/>
</svg>
