<svg width="31" height="33" viewBox="0 0 31 33" fill="none" xmlns="http://www.w3.org/2000/svg">
<g id="iconmonstr-facebook-6 1" clip-path="url(#clip0_250_357)">
<path id="Vector" d="M28.5923 0.706543H2.10937C1.20139 0.706543 0.46582 1.48601 0.46582 2.44818V30.5129C0.46582 31.4737 1.20139 32.2532 2.10937 32.2532H16.368V20.0368H12.4879V15.2758H16.368V11.765C16.368 7.69019 18.7161 5.4714 22.1471 5.4714C23.7906 5.4714 25.2022 5.60153 25.614 5.65937V9.91817L23.2349 9.91948C21.3693 9.91948 21.0084 10.8593 21.0084 12.2368V15.2772H25.4577L24.8785 20.0381H21.0084V32.2532H28.5947C29.5003 32.2532 30.2358 31.4737 30.2358 30.5116V2.44818C30.2358 1.48601 29.5002 0.706543 28.5923 0.706543Z" fill="white"/>
</g>
<defs>
<clipPath id="clip0_250_357">
<rect width="29.77" height="31.5467" fill="white" transform="translate(0.46582 0.706543)"/>
</clipPath>
</defs>
</svg>
