<svg width="26" height="26" viewBox="0 0 26 26" fill="none" xmlns="http://www.w3.org/2000/svg">
<g clip-path="url(#clip0_63_5441)">
<path d="M24.5646 0H1.43542C0.642417 0 0 0.642417 0 1.43542V24.5657C0 25.3576 0.642417 26 1.43542 26H13.8883V15.9315H10.4997V12.0077H13.8883V9.11408C13.8883 5.75575 15.9391 3.92708 18.9356 3.92708C20.371 3.92708 21.6038 4.03433 21.9635 4.082V7.592L19.8857 7.59308C18.2563 7.59308 17.9411 8.36767 17.9411 9.503V12.0088H21.827L21.3211 15.9326H17.9411V26H24.5668C25.3576 26 26 25.3576 26 24.5646V1.43542C26 0.642417 25.3576 0 24.5646 0Z" fill="white"/>
</g>
<rect x="0.5" y="0.5" width="25" height="25" stroke="black"/>
<defs>
<clipPath id="clip0_63_5441">
<rect width="26" height="26" fill="white"/>
</clipPath>
</defs>
</svg>
