<svg width="56" height="54" viewBox="0 0 56 54" fill="none" xmlns="http://www.w3.org/2000/svg">
<g id="noto-v1:gear">
<path id="Vector" d="M48.5141 27.5061C48.5141 27.1686 48.5054 26.8353 48.4879 26.5062L54.2497 24.5572C54.1929 22.4478 53.8122 20.3595 53.1166 18.3598L46.4097 18.7142C45.7082 17.3332 44.8435 16.0351 43.8329 14.8456L47.3635 9.10809C45.9145 7.5272 44.2291 6.1636 42.3629 5.0623L37.231 9.69449C35.5758 8.87148 33.8127 8.26834 31.9897 7.90152L30.861 1.27809C28.6954 0.965898 26.4991 0.965898 24.3335 1.27809L23.5066 7.90152C21.7129 8.26012 20.011 8.84652 18.4185 9.61855L13.1422 5.25215C11.277 6.35476 9.59173 7.7182 8.1416 9.29793L11.7947 14.6979C10.8974 15.7374 10.1103 16.861 9.44535 18.0518L2.38848 17.9675C1.69285 19.9672 1.31223 22.0597 1.25098 24.169L7.06098 25.8692C7.01723 26.4092 6.9866 26.9576 6.9866 27.5103C6.9866 28.7168 7.10473 29.8981 7.31473 31.0498L2.0166 35.2306C2.81723 37.1923 3.91973 39.0317 5.28035 40.6812L10.4385 38.5592C11.8165 40.5616 13.5561 42.3092 15.5747 43.7187L14.2404 50.5404C16.1654 51.5487 18.2304 52.2743 20.3741 52.692L23.3272 47.0684C24.7535 47.3679 26.2322 47.5282 27.7504 47.5282C29.1679 47.5282 30.5504 47.389 31.8891 47.1317L35.131 52.6962C37.2747 52.2743 39.3441 51.5487 41.2647 50.5447L39.6591 43.9086C41.7941 42.4657 43.6316 40.6475 45.071 38.5507L50.2204 40.4239C51.581 38.7743 52.6835 36.935 53.4841 34.9732L48.1685 31.13C48.3916 29.9529 48.5141 28.7421 48.5141 27.5061ZM27.7504 40.2129C20.6016 40.2129 14.8091 34.6273 14.8091 27.7339C14.8091 20.8404 20.6016 15.2548 27.7504 15.2548C34.8991 15.2548 40.6916 20.8404 40.6916 27.7339C40.6916 34.6273 34.8991 40.2129 27.7504 40.2129Z" fill="#78A3AD"/>
<path id="Vector_2" d="M27.7508 15.251C20.6021 15.251 14.8096 20.8366 14.8096 27.73C14.8096 34.6235 20.6021 40.2091 27.7508 40.2091C34.8996 40.2091 40.6921 34.6235 40.6921 27.73C40.6921 20.8366 34.8996 15.251 27.7508 15.251ZM27.6983 33.2186C24.5527 33.2186 21.9933 30.7549 21.9933 27.7174C21.9933 27.5022 22.0108 27.2913 22.0327 27.0846C22.2558 24.2538 24.7014 22.0221 27.6939 22.0221C30.6864 22.0221 33.1321 24.2538 33.3552 27.0846C33.3814 27.2913 33.3946 27.5022 33.3946 27.7174C33.4033 30.7549 30.8483 33.2186 27.6983 33.2186Z" fill="#64878E"/>
<path id="Vector_3" d="M11.9656 23.895C11.8694 23.895 11.7687 23.8824 11.6681 23.8613C11.5129 23.8238 11.3668 23.7572 11.2383 23.6652C11.1098 23.5732 11.0014 23.4577 10.9193 23.3252C10.8372 23.1927 10.783 23.0459 10.7599 22.8932C10.7367 22.7405 10.745 22.5849 10.7844 22.4353C10.99 21.638 11.27 20.8533 11.6112 20.1024C11.6754 19.961 11.7679 19.8332 11.8834 19.7263C11.9989 19.6195 12.1351 19.5356 12.2843 19.4796C12.4334 19.4235 12.5926 19.3964 12.7526 19.3998C12.9126 19.4031 13.0704 19.4369 13.2169 19.4991C13.8337 19.7607 14.1137 20.4525 13.8425 21.0474C13.5537 21.6802 13.3219 22.3425 13.1469 23.0091C13.0794 23.262 12.9269 23.4862 12.7131 23.6466C12.4993 23.8069 12.2364 23.8943 11.9656 23.895ZM14.8575 19.0435C14.6363 19.0428 14.4194 18.9843 14.2301 18.8741C14.0407 18.7639 13.8858 18.6062 13.7821 18.4178C13.6784 18.2294 13.6296 18.0174 13.641 17.8044C13.6524 17.5914 13.7236 17.3854 13.8469 17.2083C15.5224 14.8109 17.8845 12.9348 20.6456 11.8083C21.2669 11.5552 21.98 11.8336 22.2425 12.4327C22.3051 12.5748 22.3381 12.7274 22.3394 12.8817C22.3407 13.0361 22.3105 13.1892 22.2503 13.3323C22.1902 13.4753 22.1013 13.6055 21.9888 13.7154C21.8764 13.8253 21.7425 13.9127 21.595 13.9725C19.2672 14.9218 17.2759 16.5033 15.8637 18.5246C15.6319 18.8621 15.2469 19.0435 14.8575 19.0435Z" fill="white"/>
</g>
</svg>
