<svg xmlns="http://www.w3.org/2000/svg" width="26" height="25" viewBox="0 0 26 25" fill="none">
  <path d="M21.3594 19.5532C21.3643 19.5459 21.3716 19.5386 21.3765 19.5312C22.9756 17.6294 23.9375 15.1782 23.9375 12.5C23.9375 9.82178 22.9756 7.3706 21.3789 5.46875C21.374 5.46143 21.3667 5.45654 21.3618 5.44922C21.335 5.41748 21.3105 5.38818 21.2837 5.35889C21.2739 5.34668 21.2642 5.33691 21.2544 5.32471L21.1543 5.20996L21.1519 5.20752C21.1152 5.16602 21.0762 5.12451 21.0395 5.08301L21.0371 5.08057C20.959 4.99756 20.8809 4.91455 20.8003 4.83398L20.7979 4.83154L20.6807 4.71436L20.6733 4.70703C20.6367 4.67041 20.6001 4.63623 20.5635 4.60205C20.5513 4.58984 20.5391 4.57764 20.5244 4.56543C20.5 4.54102 20.4756 4.51904 20.4512 4.49707C20.4438 4.48975 20.4341 4.48242 20.4268 4.47266C18.4785 2.66602 15.8687 1.5625 13 1.5625C10.1313 1.5625 7.52148 2.66602 5.5708 4.47266C5.56348 4.47998 5.55371 4.4873 5.54639 4.49707C5.52197 4.51904 5.49756 4.54346 5.47314 4.56787C5.46094 4.58008 5.44873 4.59229 5.43408 4.60449C5.39746 4.63867 5.36084 4.67529 5.32422 4.70947L5.31689 4.7168L5.19971 4.83398L5.19727 4.83643C5.1167 4.91699 5.03857 5 4.96045 5.08301L4.95801 5.08545C4.91895 5.12695 4.88232 5.16846 4.8457 5.20996L4.84326 5.2124C4.80908 5.24902 4.7749 5.28809 4.74316 5.32715C4.7334 5.33935 4.72363 5.34912 4.71387 5.36133C4.68701 5.39062 4.6626 5.42236 4.63574 5.45166C4.63086 5.45898 4.62353 5.46387 4.61865 5.47119C3.02441 7.37061 2.0625 9.82178 2.0625 12.5C2.0625 15.1782 3.02441 17.6294 4.62109 19.5312C4.62598 19.5386 4.6333 19.5459 4.63818 19.5532L4.71387 19.6436C4.72363 19.6558 4.7334 19.6655 4.74316 19.6777L4.84326 19.7925C4.84326 19.7949 4.8457 19.7949 4.8457 19.7974C4.88232 19.8389 4.91895 19.8804 4.95801 19.9194L4.96045 19.9219C5.03857 20.0049 5.1167 20.0879 5.19482 20.1685L5.19727 20.1709C5.23633 20.21 5.27295 20.249 5.31201 20.2856L5.31934 20.293C5.3999 20.3735 5.48291 20.4517 5.56592 20.5273C7.52148 22.334 10.1313 23.4375 13 23.4375C15.8687 23.4375 18.4785 22.334 20.4292 20.5273C20.5124 20.4511 20.5938 20.373 20.6733 20.293L20.6807 20.2856C20.7197 20.2466 20.7588 20.21 20.7954 20.1709L20.7979 20.1685C20.8784 20.0879 20.9565 20.0049 21.0322 19.9219L21.0347 19.9194C21.0713 19.8779 21.1103 19.8389 21.147 19.7974C21.147 19.7949 21.1494 19.7949 21.1494 19.7925C21.1836 19.7559 21.2178 19.7168 21.2495 19.6777C21.2593 19.6655 21.269 19.6558 21.2788 19.6436C21.3064 19.6141 21.3333 19.584 21.3594 19.5532ZM21.4595 16.0718C21.1226 16.8677 20.6782 17.605 20.1362 18.2739C19.5258 17.7464 18.8584 17.2886 18.1465 16.9092C18.4297 15.7642 18.6055 14.5068 18.6519 13.1836H22.1553C22.082 14.1821 21.8477 15.1514 21.4595 16.0718ZM22.1553 11.8164H18.6519C18.6055 10.4932 18.4297 9.23584 18.1465 8.09082C18.8618 7.70996 19.5283 7.25098 20.1362 6.72607C21.3144 8.17621 22.0191 9.95297 22.1553 11.8164ZM16.5718 4.04053C17.541 4.45068 18.4224 5.01709 19.1987 5.72998C18.7477 6.114 18.2623 6.45561 17.7485 6.75049C17.3652 5.65185 16.8745 4.69727 16.3032 3.93311C16.3936 3.96729 16.4839 4.00391 16.5718 4.04053ZM14.3599 21.145C14.1353 21.3208 13.9106 21.4551 13.6836 21.5454V17.0166C14.6523 17.0842 15.605 17.2999 16.5083 17.6562C16.3057 18.2568 16.0713 18.811 15.8003 19.3115C15.3755 20.1025 14.8774 20.7349 14.3599 21.145ZM15.8003 5.68848C16.0688 6.19141 16.3057 6.7456 16.5083 7.34375C15.605 7.70009 14.6523 7.91581 13.6836 7.9834V3.45703C13.9082 3.54736 14.1353 3.6792 14.3599 3.85742C14.8774 4.26514 15.3755 4.89746 15.8003 5.68848ZM13.6836 15.647V13.1836H17.2847C17.2456 14.2627 17.1113 15.3101 16.8867 16.3037L16.8794 16.333C15.8548 15.9445 14.7774 15.7132 13.6836 15.647ZM13.6836 11.8164V9.35303C14.8018 9.28467 15.876 9.04785 16.8794 8.66699L16.8867 8.69629C17.1113 9.68994 17.2456 10.7349 17.2847 11.8164H13.6836ZM12.3164 13.1836V15.647C11.1982 15.7153 10.124 15.9521 9.1206 16.333L9.11328 16.3037C8.88867 15.3101 8.75439 14.2651 8.71533 13.1836H12.3164ZM8.71533 11.8164C8.75439 10.7373 8.88867 9.68994 9.11328 8.69629L9.1206 8.66699C10.124 9.04785 11.1958 9.28467 12.3164 9.35303V11.8164H8.71533ZM12.3164 17.0166V21.543C12.0918 21.4526 11.8647 21.3208 11.6401 21.1426C11.1226 20.7349 10.6221 20.1001 10.1973 19.3091C9.92871 18.8062 9.69189 18.252 9.48926 17.6538C10.3975 17.2974 11.3423 17.085 12.3164 17.0166ZM12.3164 7.9834C11.3477 7.91581 10.395 7.70009 9.4917 7.34375C9.69433 6.74316 9.92871 6.18896 10.1997 5.68848C10.6245 4.89746 11.1226 4.2627 11.6426 3.85498C11.8672 3.6792 12.0918 3.54492 12.3188 3.45459V7.9834H12.3164ZM9.42822 4.04053C9.51855 4.00391 9.60644 3.96729 9.69678 3.93311C9.12549 4.69727 8.63477 5.65185 8.25146 6.75049C7.73877 6.45752 7.25293 6.11572 6.80127 5.72998C7.57764 5.01709 8.45898 4.45068 9.42822 4.04053ZM4.54053 8.92822C4.87744 8.13232 5.32178 7.39502 5.86377 6.72607C6.47168 7.25098 7.13818 7.70996 7.85352 8.09082C7.57031 9.23584 7.39453 10.4932 7.34814 11.8164H3.84473C3.91797 10.8179 4.15234 9.84863 4.54053 8.92822ZM3.84473 13.1836H7.34814C7.39453 14.5068 7.57031 15.7642 7.85352 16.9092C7.14155 17.2886 6.47417 17.7464 5.86377 18.2739C4.68562 16.8238 3.98088 15.047 3.84473 13.1836ZM9.42822 20.9595C8.45898 20.5493 7.57764 19.9829 6.80127 19.27C7.25293 18.8843 7.73877 18.5449 8.25146 18.2495C8.63477 19.3481 9.12549 20.3027 9.69678 21.0669C9.60644 21.0327 9.51611 20.9961 9.42822 20.9595ZM16.5718 20.9595C16.4814 20.9961 16.3936 21.0327 16.3032 21.0669C16.8745 20.3027 17.3652 19.3481 17.7485 18.2495C18.2612 18.5425 18.7471 18.8843 19.1987 19.27C18.4267 19.9799 17.538 20.5515 16.5718 20.9595Z" fill="black"/>
</svg>