<svg xmlns="http://www.w3.org/2000/svg" width="26" height="25" viewBox="0 0 26 25" fill="none">
  <path d="M19.25 16.6665C19.25 14.8155 18.4453 13.1524 17.1667 12.008C16.0609 11.0183 14.6007 10.4165 13 10.4165C11.3993 10.4165 9.93906 11.0183 8.83333 12.008C7.55469 13.1524 6.75 14.8155 6.75 16.6665C6.75 20.1183 9.54823 22.9165 13 22.9165C16.4518 22.9165 19.25 20.1183 19.25 16.6665Z" fill="#2F88FF"/>
  <path d="M8.83398 2.08325H17.1673V10.4166V12.008C16.0616 11.0184 14.6014 10.4166 13.0007 10.4166C11.3999 10.4166 9.93971 11.0184 8.83398 12.008V10.4166V2.08325Z" fill="#2F88FF"/>
  <path d="M8.83366 2.08325H17.167M8.83366 2.08325H4.66699V7.29159L8.83366 10.4166M8.83366 2.08325V10.4166M17.167 2.08325H21.3337V7.29159L17.167 10.4166M17.167 2.08325V10.4166M8.83366 10.4166V12.008M17.167 10.4166V12.008M8.83366 12.008C9.93939 11.0184 11.3996 10.4166 13.0003 10.4166C14.6011 10.4166 16.0613 11.0184 17.167 12.008M8.83366 12.008C7.55501 13.1525 6.75033 14.8155 6.75033 16.6666C6.75033 20.1184 9.54855 22.9166 13.0003 22.9166C16.4521 22.9166 19.2503 20.1184 19.2503 16.6666C19.2503 14.8155 18.4456 13.1525 17.167 12.008" stroke="black" stroke-width="4" stroke-linecap="round" stroke-linejoin="round"/>
  <path d="M17.167 2.08325H21.3337V7.29159L17.167 10.4166" stroke="black" stroke-width="4" stroke-linecap="round" stroke-linejoin="round"/>
  <path d="M8.83366 2.08325H4.66699V7.29159L8.83366 10.4166" stroke="black" stroke-width="4" stroke-linecap="round" stroke-linejoin="round"/>
  <path d="M19.25 16.6665C19.25 14.8155 18.4453 13.1524 17.1667 12.008C16.0609 11.0183 14.6007 10.4165 13 10.4165C11.3993 10.4165 9.93906 11.0183 8.83333 12.008C7.55469 13.1524 6.75 14.8155 6.75 16.6665C6.75 20.1183 9.54823 22.9165 13 22.9165C16.4518 22.9165 19.25 20.1183 19.25 16.6665Z" fill="#2F88FF" stroke="black" stroke-width="4" stroke-linecap="round" stroke-linejoin="round"/>
  <path d="M8.83398 2.08325H17.1673V10.4166V12.008C16.0616 11.0184 14.6014 10.4166 13.0007 10.4166C11.3999 10.4166 9.93971 11.0184 8.83398 12.008V10.4166V2.08325Z" fill="#2F88FF" stroke="black" stroke-width="4" stroke-linecap="round" stroke-linejoin="round"/>
  <path d="M13.0007 19.2708V14.0625L11.959 14.5833M13.0007 19.2708H14.0423M13.0007 19.2708H11.959" stroke="white" stroke-width="4" stroke-linecap="round" stroke-linejoin="round"/>
</svg>