<svg width="31" height="33" viewBox="0 0 31 33" fill="none" xmlns="http://www.w3.org/2000/svg">
<g id="google-color-svgrepo-com 1" clip-path="url(#clip0_250_1599)">
<g id="Icons">
<g id="Color-">
<g id="Google">
<path id="Fill-1" fill-rule="evenodd" clip-rule="evenodd" d="M6.87261 16.3338C6.87261 15.332 7.02962 14.3716 7.30986 13.4707L2.40475 9.50146C1.44876 11.5583 0.910156 13.8759 0.910156 16.3338C0.910156 18.7895 1.4481 21.1057 2.40276 23.1612L7.30522 19.1842C7.02764 18.2876 6.87261 17.3306 6.87261 16.3338Z" fill="#FBBC05"/>
<path id="Fill-2" fill-rule="evenodd" clip-rule="evenodd" d="M15.4846 7.22047C17.5383 7.22047 19.3933 7.99161 20.8508 9.25347L25.0908 4.76684C22.5071 2.38331 19.1946 0.911133 15.4846 0.911133C9.72487 0.911133 4.7747 4.4016 2.4043 9.50164L7.30941 13.4709C8.43963 9.83533 11.6613 7.22047 15.4846 7.22047Z" fill="#EB4335"/>
<path id="Fill-3" fill-rule="evenodd" clip-rule="evenodd" d="M15.4846 25.4477C11.6613 25.4477 8.43963 22.8328 7.30941 19.1973L2.4043 23.1658C4.7747 28.2666 9.72487 31.757 15.4846 31.757C19.0396 31.757 22.4335 30.4195 24.9808 27.9133L20.3248 24.0989C19.0111 24.9759 17.3568 25.4477 15.4846 25.4477Z" fill="#34A853"/>
<path id="Fill-4" fill-rule="evenodd" clip-rule="evenodd" d="M29.3978 16.3339C29.3978 15.4226 29.2653 14.4411 29.0665 13.5298H15.4854V19.4886H23.3028C22.9119 21.5202 21.848 23.0821 20.3255 24.0986L24.9816 27.913C27.6574 25.2813 29.3978 21.3611 29.3978 16.3339Z" fill="#4285F4"/>
</g>
</g>
</g>
</g>
<defs>
<clipPath id="clip0_250_1599">
<rect width="29.77" height="31.5467" fill="white" transform="translate(0.46582 0.560059)"/>
</clipPath>
</defs>
</svg>
