<svg width="31" height="32" viewBox="0 0 31 32" fill="none" xmlns="http://www.w3.org/2000/svg">
<g id="kakao-svgrepo-com 1">
<path id="Vector" d="M15.3217 3.09082C17.8711 3.09082 20.229 3.61659 22.3954 4.66813C24.5618 5.71967 26.2745 7.14956 27.5334 8.95776C28.7923 10.7659 29.4218 12.7382 29.4218 14.8747C29.4218 17.0112 28.7923 18.9863 27.5334 20.8001C26.2745 22.6138 24.5644 24.0465 22.4032 25.098C20.242 26.1495 17.8815 26.6753 15.3217 26.6753C14.5139 26.6753 13.6798 26.6141 12.8196 26.4917C9.08474 29.2402 7.09672 30.6311 6.85542 30.6645C6.74 30.709 6.62982 30.7034 6.52493 30.6478C6.48295 30.6144 6.45149 30.5699 6.4305 30.5142C6.40951 30.4586 6.39904 30.4086 6.39904 30.364V30.2973C6.46201 29.8633 6.93932 28.0551 7.83108 24.8727C5.80629 23.8045 4.19853 22.3885 3.00779 20.6248C1.81705 18.8611 1.22168 16.9444 1.22168 14.8747C1.22168 12.7382 1.85115 10.7659 3.11008 8.95776C4.36901 7.14956 6.08168 5.71967 8.2481 4.66813C10.4145 3.61659 12.7724 3.09082 15.3217 3.09082Z" fill="black"/>
</g>
</svg>
