<svg width="86" height="87" viewBox="0 0 86 87" fill="none" xmlns="http://www.w3.org/2000/svg">
<g clip-path="url(#clip0_88_8319)">
<g clip-path="url(#clip1_88_8319)">
<path fill-rule="evenodd" clip-rule="evenodd" d="M43 40.394C38.5468 40.394 34.9375 36.7847 34.9375 32.3315C34.9375 27.8784 38.5468 24.269 43 24.269C47.4532 24.269 51.0625 27.8784 51.0625 32.3315C51.0625 36.7847 47.4532 40.394 43 40.394ZM43 18.894C35.5798 18.894 29.5625 24.9087 29.5625 32.3315C29.5625 39.7544 35.5798 45.769 43 45.769C50.4202 45.769 56.4375 39.7544 56.4375 32.3315C56.4375 24.9087 50.4202 18.894 43 18.894ZM43 78.019C38.5307 78.0432 16.125 43.568 16.125 32.3315C16.125 17.4912 28.1569 5.45654 43 5.45654C57.8431 5.45654 69.875 17.4912 69.875 32.3315C69.875 43.4175 47.3994 78.0432 43 78.019ZM43 0.081543C25.1899 0.081543 10.75 14.5215 10.75 32.3315C10.75 45.8174 37.6384 86.1111 43 86.0815C48.2783 86.1111 75.25 45.6347 75.25 32.3315C75.25 14.5215 60.8101 0.081543 43 0.081543Z" fill="black"/>
</g>
</g>
<defs>
<clipPath id="clip0_88_8319">
<rect width="86" height="86" fill="white" transform="translate(0 0.081543)"/>
</clipPath>
<clipPath id="clip1_88_8319">
<rect width="86" height="86" fill="white" transform="translate(0 0.081543)"/>
</clipPath>
</defs>
</svg>
