<svg width="56" height="62" viewBox="0 0 56 62" fill="none" xmlns="http://www.w3.org/2000/svg">
<path fill-rule="evenodd" clip-rule="evenodd" d="M13.7256 6.13001C11.7408 6.45671 9.6148 7.5225 8.01795 9.54536C7.02826 10.7991 6.01134 12.558 6.06079 14.8621C6.10958 17.1352 7.2134 20.5798 11.8073 25.1721L27.5562 40.4553L40.5835 27.7538L27.4893 14.3963L18.5803 23.0945L14.3734 18.7857L29.0641 4.44257L29.0774 4.42961L29.0908 4.41682C32.8969 0.791304 37.3781 -0.395339 41.6063 0.251616C45.734 0.883179 49.4286 3.22381 51.9985 6.31413C54.3809 9.17903 55.6319 12.6461 55.2505 16.4292C54.8747 20.1553 52.954 23.8274 49.6942 27.2779L49.6517 27.3228L49.6074 27.366L27.9848 48.4479L27.5776 48.8674L27.566 48.8562L27.5595 48.8625L27.3303 48.6274L7.59781 29.4784L7.58238 29.4634L7.56716 29.4482C2.25045 24.1392 0.132641 19.2949 0.0402713 14.9913C-0.0514855 10.7163 1.87313 7.61063 3.29129 5.81413C5.88904 2.52335 9.39779 0.739428 12.7475 0.188062C15.9875 -0.345235 19.5039 0.227331 21.8803 2.26989L17.9551 6.83673C17.338 6.30629 15.8201 5.78525 13.7256 6.13001ZM31.7981 10.1894L44.8953 23.5499L45.358 23.0987C47.9644 20.3261 49.0546 17.8517 49.2589 15.8251C49.4586 13.8448 48.8506 11.947 47.3683 10.1645C45.6083 8.04809 43.1772 6.58397 40.6955 6.20425C38.3185 5.84055 35.7116 6.43341 33.257 8.765L31.7981 10.1894Z" fill="url(#paint0_linear_240_764)"/>
<path d="M1.1903 61.832V59.8407H3.73592C4.32443 59.8407 4.81028 59.7403 5.1935 59.5396C5.58127 59.3389 5.87324 59.0195 6.06941 58.5816C6.27014 58.1436 6.37051 57.5756 6.37051 56.8776C6.37051 56.1705 6.27014 55.598 6.06941 55.16C5.87324 54.7221 5.57899 54.405 5.18665 54.2088C4.79888 54.0127 4.30846 53.9146 3.71539 53.9146H1.14924V51.9233H3.82488C4.83309 51.9233 5.70217 52.1217 6.43209 52.5186C7.16658 52.9155 7.73 53.4858 8.12233 54.2294C8.51467 54.973 8.71084 55.8557 8.71084 56.8776C8.71084 57.8995 8.51467 58.7823 8.12233 59.5259C7.73 60.2695 7.16658 60.8398 6.43209 61.2367C5.6976 61.6336 4.82853 61.832 3.82488 61.832H1.1903ZM2.5247 61.832H0.198051V51.9233H2.5247V61.832ZM11.4946 51.9233H15.5457C16.2893 51.9233 16.9303 52.0578 17.4686 52.327C18.0115 52.5916 18.4266 52.9725 18.714 53.4698C19.006 53.9625 19.152 54.5442 19.152 55.2148C19.152 55.8808 19.0037 56.4557 18.7072 56.9392C18.4152 57.4228 17.991 57.7901 17.4344 58.041C16.8824 58.2919 16.23 58.4173 15.4773 58.4173H12.8769V56.5629H15.0598C15.4339 56.5629 15.7419 56.515 15.9837 56.4192C16.23 56.3188 16.4171 56.1705 16.5448 55.9744C16.6725 55.7736 16.7364 55.5204 16.7364 55.2148C16.7364 54.9 16.6725 54.64 16.5448 54.4347C16.4171 54.2294 16.2277 54.0743 15.9768 53.9693C15.7305 53.8644 15.4225 53.8119 15.053 53.8119H13.8212V61.832H11.4946V51.9233ZM19.4942 61.832H16.928L14.5261 57.3088H17.0238L19.4942 61.832ZM21.8605 51.9233H28.7241V53.8256H24.1871V55.9265H28.3683V57.822H24.1871V59.9297H28.7241V61.832H21.8605V51.9233ZM31.1589 61.832L34.512 51.9233H37.5982L40.9581 61.832H38.4536L36.0996 54.3731H36.0174L33.6634 61.832H31.1589ZM38.7273 57.9246V59.7107H33.3555V57.9246H38.7273ZM46.2944 51.9233L48.8605 58.1573H48.9769L51.5293 51.9233H54.424V61.832H52.1521V55.6664H52.0699L49.6475 61.7704H48.1831L45.7675 55.6459H45.6853V61.832H43.4134V51.9233H46.2944Z" fill="#224B8F"/>
<defs>
<linearGradient id="paint0_linear_240_764" x1="27.6776" y1="0" x2="27.6776" y2="48.8674" gradientUnits="userSpaceOnUse">
<stop offset="0.025" stop-color="#C5DBFF"/>
<stop offset="0.31" stop-color="#2E5EAB"/>
<stop offset="1" stop-color="#224B8F"/>
</linearGradient>
</defs>
</svg>
