<svg width="34" height="34" viewBox="0 0 34 34" fill="none" xmlns="http://www.w3.org/2000/svg">
<path d="M-0.000419617 16.9997C-0.000419617 21.5461 1.79926 25.673 4.72437 28.7051C7.79175 31.8849 12.0959 33.8626 16.8626 33.8626C21.6294 33.8626 25.9355 31.8849 29.0009 28.7043C31.9277 25.6721 33.7266 21.5453 33.7266 16.9997C33.7266 7.68628 26.1759 0.136719 16.8626 0.136719C7.54919 0.136719 -0.000419617 7.68649 -0.000419617 16.9997Z" fill="#DEDFE0"/>
<path d="M4.72302 28.7053C6.67578 30.7281 9.1268 32.2652 11.881 33.1155C12.5425 33.3211 13.221 33.4844 13.9144 33.6052C14.8706 33.777 15.8565 33.8639 16.8615 33.8639C17.8602 33.8639 18.8376 33.777 19.7875 33.6095C20.4808 33.4907 21.1593 33.3254 21.8187 33.1218C24.5835 32.2737 27.043 30.7344 29 28.7053L28.7095 27.5604C28.2706 25.8409 26.9158 24.503 25.1878 24.0917L25.1729 24.0874L22.3021 23.4005C22.1452 23.3623 21.9904 23.3157 21.842 23.2542C21.7975 23.2372 21.7508 23.2181 21.7063 23.1969C21.6279 23.1651 21.5515 23.1291 21.4773 23.0888C21.1614 22.9234 20.8773 22.7135 20.6313 22.4633C20.6144 22.4464 20.5974 22.4294 20.5804 22.4124C20.379 22.2004 20.2009 21.9608 20.0567 21.7022C19.9126 21.4435 19.8002 21.1657 19.7239 20.8689L19.4991 19.9954L19.4397 19.76L19.4355 19.7409L19.1472 18.6278L19.0623 18.2949H14.6628L14.3363 19.5671L14.3045 19.6816L14.2896 19.7452L14.2854 19.76L14.2239 19.9975L13.9992 20.8689C13.9228 21.1636 13.8105 21.4435 13.6642 21.7022C13.2698 22.4124 12.6337 22.9701 11.8619 23.2648C11.7898 23.2923 11.7156 23.3178 11.6414 23.3411C11.5693 23.3623 11.4973 23.3835 11.423 23.4005L8.53525 24.0917C8.53313 24.0917 8.53101 24.0917 8.52889 24.0938C6.80512 24.5072 5.45239 25.843 5.01562 27.5604L4.72302 28.7053Z" fill="#F4F4F4"/>
<path d="M11.7669 11.7366C11.7669 11.9231 11.7775 12.1055 11.7966 12.2878C11.8453 12.7712 12.3818 17.845 13.4461 18.9115C13.7387 19.2041 14.0038 19.4839 14.2624 19.7362C14.4957 19.9652 14.7268 20.173 14.9706 20.3469C15.4837 20.7158 16.0562 20.9448 16.8619 20.9448H16.864C17.7248 20.9448 18.3206 20.684 18.8592 20.2705C19.0648 20.1115 19.262 19.9313 19.4634 19.7362C19.72 19.4839 19.985 19.2041 20.2776 18.9115C20.8395 18.3517 21.2529 16.6873 21.5265 15.1608C21.5392 15.0887 21.5519 15.0166 21.5646 14.9445C21.8106 13.507 21.9335 12.2497 21.9335 12.2497C21.9484 12.0822 21.959 11.9104 21.959 11.7366C21.959 11.692 21.9569 11.6475 21.9569 11.603C21.9463 11.2023 21.889 10.8121 21.7915 10.439C21.7872 10.422 21.783 10.405 21.7788 10.3881C21.2105 8.31872 19.3723 6.77518 17.1545 6.65008C17.0591 6.64372 16.9615 6.6416 16.864 6.6416H16.8619C14.0483 6.6416 11.7669 8.92087 11.7669 11.7366Z" fill="#F4F4F4"/>
</svg>
