<svg width="60" height="60" viewBox="0 0 60 60" fill="none" xmlns="http://www.w3.org/2000/svg">
<path fill-rule="evenodd" clip-rule="evenodd" d="M52.2984 12.525H7.29844C6.80839 12.5255 6.32928 12.67 5.92067 12.9405C5.51206 13.211 5.19197 13.5957 5.00019 14.0466C4.8084 14.4976 4.75338 14.995 4.84197 15.4769C4.93055 15.9589 5.15884 16.4042 5.49844 16.7575L19.3709 31.19L44.2959 18.6375L45.1709 20.155L21.8634 35.525L27.3034 54.8275C27.4057 55.1948 27.5908 55.5338 27.8446 55.8183C28.0983 56.1029 28.4138 56.3256 28.767 56.4692C29.1202 56.6129 29.5016 56.6736 29.8819 56.6469C30.2622 56.6202 30.6313 56.5066 30.9609 56.315C31.3334 56.1 31.6509 55.79 31.8759 55.4L54.4634 16.275C54.6828 15.895 54.7984 15.4639 54.7984 15.025C54.7984 14.5862 54.6829 14.1551 54.4634 13.7751C54.244 13.395 53.9285 13.0794 53.5484 12.86C53.1684 12.6406 52.7373 12.525 52.2984 12.525Z" fill="#525252"/>
</svg>
