<svg xmlns="http://www.w3.org/2000/svg" width="26" height="25" viewBox="0 0 26 25" fill="none">
  <path d="M12.9997 20.8335C15.2098 20.8335 17.3294 19.9555 18.8922 18.3927C20.455 16.8299 21.333 14.7103 21.333 12.5002C21.333 10.29 20.455 8.17041 18.8922 6.60761C17.3294 5.0448 15.2098 4.16683 12.9997 4.16683C10.7895 4.16683 8.66992 5.0448 7.10712 6.60761C5.54431 8.17041 4.66634 10.29 4.66634 12.5002C4.66634 14.7103 5.54431 16.8299 7.10712 18.3927C8.66992 19.9555 10.7895 20.8335 12.9997 20.8335ZM12.9997 2.0835C14.3676 2.0835 15.7222 2.35293 16.986 2.87642C18.2498 3.3999 19.3981 4.16719 20.3654 5.13447C21.3326 6.10174 22.0999 7.25007 22.6234 8.51388C23.1469 9.77768 23.4163 11.1322 23.4163 12.5002C23.4163 15.2628 22.3189 17.9124 20.3654 19.8659C18.4119 21.8194 15.7623 22.9168 12.9997 22.9168C7.23926 22.9168 2.58301 18.2293 2.58301 12.5002C2.58301 9.73749 3.68047 7.08797 5.63398 5.13447C7.58748 3.18096 10.237 2.0835 12.9997 2.0835ZM13.5205 7.29183V12.7606L18.208 15.5418L17.4268 16.8231L11.958 13.5418V7.29183H13.5205Z" fill="#1C1C1C"/>
</svg>