<svg width="136" height="121" viewBox="0 0 136 121" fill="none" xmlns="http://www.w3.org/2000/svg">
<path fill-rule="evenodd" clip-rule="evenodd" d="M34.005 15.1358C29.2102 15.935 24.0472 18.5461 20.1567 23.5369C17.7478 26.6269 15.2544 30.9835 15.3757 36.7045C15.4954 42.3502 18.2019 50.8652 29.3952 62.1962L67.7037 99.8421L99.4081 68.5399L67.5387 35.6187L45.9125 57.0001L35.4569 46.4248L71.2833 11.0039L71.3159 10.9716L71.3488 10.9398C80.6455 1.97221 91.6201 -0.984138 101.996 0.623532C112.113 2.19106 121.144 7.9954 127.412 15.6284C133.225 22.7068 136.263 31.253 135.336 40.5635C134.422 49.7401 129.748 58.8015 121.792 67.3299L121.687 67.4415L121.579 67.5488L67.8102 120.635L67.74 120.564L67.6581 120.647L18.9331 72.7653L18.8952 72.7281L18.8579 72.6903C5.8823 59.5697 0.732268 47.6153 0.507688 37.0196C0.284573 26.493 4.96474 18.8365 8.42797 14.3938C14.7668 6.26236 23.3454 1.836 31.5599 0.466793C39.5043 -0.857378 48.1324 0.565632 53.9576 5.63574L44.1942 16.8533C42.7189 15.5692 39.0699 14.2915 34.005 15.1358ZM78.1146 25.1625L109.991 58.0911L111.019 57.0767C117.368 50.2367 120.037 44.1196 120.537 39.09C121.028 34.1676 119.532 29.4648 115.919 25.0663C111.628 19.8411 105.72 16.2494 99.7191 15.3195C93.9866 14.4313 87.6755 15.8696 81.7045 21.6132L78.1146 25.1625Z" fill="white"/>
</svg>
